/* XPM */
static char * cole_xpm[] = {
"64 64 176 2",
"  	c #343D42",
". 	c #384146",
"+ 	c #333C41",
"@ 	c #363F44",
"# 	c #485156",
"$ 	c #31383E",
"% 	c #3F464C",
"& 	c #3C4349",
"* 	c #3D4047",
"= 	c #393E44",
"- 	c #393C43",
"; 	c #383B42",
"> 	c #353A40",
", 	c #3B4248",
"' 	c #1D242A",
") 	c #2C3339",
"! 	c #23282E",
"~ 	c #2A3338",
"{ 	c #323B40",
"] 	c #262D33",
"^ 	c #283136",
"/ 	c #282F35",
"( 	c #2D343A",
"_ 	c #484F55",
": 	c #3E454B",
"< 	c #2E373C",
"[ 	c #2F383D",
"} 	c #1D2228",
"| 	c #30373D",
"1 	c #272E34",
"2 	c #20272D",
"3 	c #464D53",
"4 	c #475055",
"5 	c #1F262C",
"6 	c #464F54",
"7 	c #232C31",
"8 	c #40494E",
"9 	c #72A936",
"0 	c #8BBF4A",
"a 	c #252A30",
"b 	c #232A30",
"c 	c #182126",
"d 	c #34393F",
"e 	c #6CA433",
"f 	c #70A635",
"g 	c #84B946",
"h 	c #98CC53",
"i 	c #1B2429",
"j 	c #434C51",
"k 	c #42474D",
"l 	c #41444B",
"m 	c #34373E",
"n 	c #74AA3B",
"o 	c #92C450",
"p 	c #99CC54",
"q 	c #96CA52",
"r 	c #3B4449",
"s 	c #30353B",
"t 	c #2C2F36",
"u 	c #282B32",
"v 	c #82B645",
"w 	c #83B749",
"x 	c #9BCB56",
"y 	c #8DC24E",
"z 	c #0F181D",
"A 	c #1A1D24",
"B 	c #181D23",
"C 	c #1C1F26",
"D 	c #1D2027",
"E 	c #649B32",
"F 	c #90C04D",
"G 	c #79AE42",
"H 	c #95C753",
"I 	c #0C1319",
"J 	c #141B21",
"K 	c #11161C",
"L 	c #66A22E",
"M 	c #609733",
"N 	c #7EB343",
"O 	c #87BC4C",
"P 	c #99C953",
"Q 	c #0F161C",
"R 	c #1B2228",
"S 	c #12191F",
"T 	c #44494F",
"U 	c #595C63",
"V 	c #565960",
"W 	c #50555B",
"X 	c #4B5258",
"Y 	c #699F34",
"Z 	c #79AE3D",
"` 	c #535A60",
" .	c #4F5259",
"..	c #4E555B",
"+.	c #4F565C",
"@.	c #50575D",
"#.	c #424B50",
"$.	c #3F484D",
"%.	c #699F3C",
"&.	c #93C94E",
"*.	c #444B51",
"=.	c #2D3037",
"-.	c #484B52",
";.	c #598F32",
">.	c #93C64F",
",.	c #30333A",
"'.	c #67A031",
").	c #6EA43B",
"!.	c #9CCE56",
"~.	c #90C350",
"{.	c #5C9332",
"].	c #86B948",
"^.	c #9CCB56",
"/.	c #8BBE4E",
"(.	c #374045",
"_.	c #40434A",
":.	c #579032",
"<.	c #88BA47",
"[.	c #282D33",
"}.	c #151C22",
"|.	c #639D2F",
"1.	c #548C31",
"2.	c #71A73A",
"3.	c #171E24",
"4.	c #4C8430",
"5.	c #0D141A",
"6.	c #51585E",
"7.	c #518732",
"8.	c #555C62",
"9.	c #497F2F",
"0.	c #4B822F",
"a.	c #5F9931",
"b.	c #8BC04E",
"c.	c #97C954",
"d.	c #548D2F",
"e.	c #75AB41",
"f.	c #95C84F",
"g.	c #7CB13E",
"h.	c #56912F",
"i.	c #437C2E",
"j.	c #8CBE4D",
"k.	c #97CC50",
"l.	c #659C3A",
"m.	c #609539",
"n.	c #8ABC50",
"o.	c #9DCD58",
"p.	c #88BD4D",
"q.	c #88BD49",
"r.	c #478030",
"s.	c #8DC14C",
"t.	c #5A942F",
"u.	c #7EB149",
"v.	c #6A9E40",
"w.	c #8EC450",
"x.	c #5C9339",
"y.	c #47822A",
"z.	c #467D30",
"A.	c #86BA49",
"B.	c #5E9A2F",
"C.	c #3E792A",
"D.	c #4F882F",
"E.	c #8EC04C",
"F.	c #497F31",
"G.	c #2B3439",
"H.	c #4B5459",
"I.	c #6FA640",
"J.	c #6FA834",
"K.	c #6AA42E",
"L.	c #70A541",
"M.	c #1F282D",
"N.	c #273035",
"O.	c #172025",
"P.	c #131A20",
"Q.	c #5D646A",
"R.	c #636A70",
"S.	c #77B03C",
"  . + @   # $ % & & * = - ; > > -   > $   , . $ ' ) ! ~ { ] ^ ^ ~ ^ ^ / / / ^ ^ ) ] ) ( _     & , @ & : , % : < % & = = . , . @ ",
"[ + {   + # { : -   - - ; - = = > > $ < $ @ > ( } ) ! ^ | ] / / ^ ^ / 1 1 1 / / / 2 1 ^ 3 { $   .   . : . : : ( : , . . . . @ > ",
"+     @ [ 4   : & & . = = - - - = @ > $ { @ > ( 5 $ ] ) $ 1 ~ ^ / 1 ] ] ] ] 1 / ^ ! ] / 6 @ > { .   . : . : : ( : & & & : & =   ",
".     { 7 8   . & & * = = - - - = @ > $ { @ > ( ' 9 0 ^ ( a ^ / 1 1 ] ] ] 1 / ^ ) b ] 1 _ .   |   $   .   . = ^     = . , . @   ",
". $ { < c : . , - -     - = = . d $ | ( $   { ) e f g h ] ' a ! 1 ] ] ] ] 1 ^ ^ ) a ] ! 8 @ { ) | ) $ > |   > a ~ ( $   @ @     ",
", { .   i j 3 8 k l & = ; > m $ | $ < < { . = $ e f n o p q ] b a a a a ] ] / / | ^ ^ ! : > { ( { < >   { @   1 ( |   @ = . . , ",
". $ % r i 8 8   * = > s t u a ! ^ ^ ^ ~ $ . . { e 9 v w p x y b ! ! 2 ! ! b ] ] ) ^ 1 c { ^ ) ^ ( ~ | $ < { $ b ~ ( $ $ $ $ {   ",
"< ^ . @ z $ ( c A B B B A C D } } } ' 5 1 < | ~ E f F G H x o 0 ' ' ' ' 5 ! ! b 2 ' } I ! c ' } 2 } ! b 2 ] b J 2 ! a ! 5 5 ! ] ",
"  + { $ ( ~ ^ 1 | | > | m & m K | ( ( < < ( / L E M v N O p P 0 q ^ Q !   ~ / a 2 ! a 1 ^ ~ ) ) b a a b ! 5 } R A J S J ! | $ ~ ",
"6 4 # # # # _ 6 k T _ 3 _ U V = W X 6 3 3 3 3 L e E Y Z G p x 0 q h ( : `  . .#  .....+.@.@.+.+.@...# #., { ) / ( ( ( $ % X  .3 ",
". , : $.$.% : & $ d = > ; _  .* _ 8 , = . & % L e e E M %.o P y p P &.$ 3 k *.#., , , . . @   { 8 k : .   $ ( ^ b ] ] ^   k 8 . ",
". , : : , @ { $ | | d ( =.* -.* 8 &   >   . : L e e f Y ;.w H H p q >.$ 8 , : . 8 8 8 k : , = @ ( < $ >   = . , 1 / ] ] ( @ , = ",
"8 #.8 8 : .   $ =   = d ,.* -.: k : . . : k L '.'.e f f Y ).>.p !.~.>.v # 8 8 : . . . . =   > { @ @ = . , & : : = @ | ^ )   : % ",
", , . . @ + $ $ | ( d | ,.- l   > { {   = . L e M e f Z 9 {.].p ^./.q g % . & @ 8 8 8 8 8 k % % = @             , . | ] b ) @ & ",
"% : , . (.@ @ @ > |   = ; & _.$ > $ $ > = , L e E {.e 9 Z M ).H x ].!.g & . % & = = . . . = @ @ . . . . . & : : : : @ ~ 1 < . k ",
": , @ { [ [ | $ > ( > = > - d a ( ~ ^ ~ < { L e e Y :.E f E {.<./.y !.N g = 8 % & & : : : & . . . =         @ =   = > ^ ] ~   , ",
", . . @       > | 1 b )   > [.c = . { . < ^ L '.e f Y :.M Y :.n N p ^.G g k 8 k , : : , : 8 :   = = @ @ = . =   . 8   ] )   = & ",
"5 b / ( $ > > > } 5 a a } }.c ! $ $ / ) 5 c |.:.E e f e e Y 1.{.g !.P 2.<.( ) / { ( ) ( { > $ ( ^ ( ( ( > & &   a ( ] c 5 1 ] / ",
"1 ^ ~ ~ ] ' }.Q R 3.A 5 a ! 5 ! ( ( a 1 c }.|.4.;.E f f f f ;.M N p y '.0 ] ! R b }.5.}.' c }.3.}.c 3.K J 5 R I ' ^ a c 2 ] ! 2 ",
"#.6 ..6.` 6...# #.. . 3 ..3 & = 3 6 k 3 . . |.4.7.1.M e e f M M Z x n %.N 8.6...+.. | . k .   . @ : = ) < . $ ' 3 6.X k 3 _ 8 8 ",
"/ ~ $ = : #.3 6 X  .6.6.#.| $ % $   < > ^ ~ L :.9.{.1.;.e e E :.n g :.).n & . = _ { / < $ ^ ] ~ a ) ~ ] ~   $ ! : _ k $   = $ $ ",
"=   > $ $ $ $ $ & | ) $ ( a 1 > : 8 , : $ | X E 0.0.E {.1.a.E 1.e {.%.].<.b.c.x q q ( < ( ] a / ] ^ ( ( $ @   < 3 @._ . : % = @ ",
"( ( < | $ >   @ : / 2 { *.8 . . @ ,   @ / a : L {.9.d.e E {.{.1.{.e.x <.0 x o /.o q < ~ 1 a a ] / / ( $ < / 1 ~ > 8 : > = = < ~ ",
"| $ $ { { { { { | ~   # # = $ @ h q f.h h P >.g.e h.i.d.'.e '.1.).x y n N 2.2./.x j.Y %.G /.q q / ] ( @ { ] 1 $ $ 8 8 , k % > ( ",
"^ ( {   { $ $ { > b ( 8 k k.P x x H /.w ].g Z Z g.g.1.4.%.n e :.N q n M ).w c.x o l.m.n.x x x x P h | ^ ^ | $ ~ ( . 8 k ,   | ^ ",
"=   { $ >   @   % 1 ~ k P x x x o.o.x H w %.Y e E e.]././.].N M e ).M M e.O ].w <.M N v N N <.o o o &.| < | ( ^ b (     >   @   ",
"  $ ( ( {   > $ , ' 5 h x p !.o.H ].G Z N 2.M 1.l.~.p x x 0 n Y E Y Y ).v ].p.j.n M E E Y e f ].o x x c.q ^ ! 5 ] <     { > { $ ",
"< | $   = =   $ % y ].v N N w ].9 e E M E Y 1.m.y y q.0 N e e Y n N G ).N O ].G {.E E M E e 9 <.H o.p p x h } ' 1 $ , .   { < ^ ",
"a / ~ / ! 5 ! 1 N N ].j.F F /.N ).Y E E E 1.7.O o F Z a.{.2.Y :.%.n n ).e ).v %.r.1.{.M E e e Y 2.j.x o y s.y >.J } 2 ' R ' 2 2 ",
"| $ ( a A }.' ^ /.x !.!.!.o.x g e e Y E :.9.G !.F 2.).).2.>.9 t.7.m.).e.N u.v.9.0.1.1.;.1.:.M M E 2.N ].0 j././.0 ( 1 R }.} ] ^ ",
"3 6 3 :   $   w.p !.!.!.o.~.n E e e e M 4.x.q <.n G y Z v <.e t.{.y.i.0.4.z.9.9.9.M E E M a.:.7.7.Y 2.0 x !.^.x o 6.# , { @ : 8 ",
"< > . : &   H o 0 g v 0 <.).E M :.:.{.4.4.v A.v F 0 g n 0 9 B.a.d.@ C.i.i.9.:.1.i.:.E e E 9 <.).;.7.{.e <.j.].0 y o - | ) ( | | ",
"{     @ (.  ].v 0 /.O e.E M 1.7.;.E M 9.a.j.0 0 v g.9 g.9 |.t.:.d.> $ i.i.0.M M 9.4.M e E N !.0 f Y a.{.e Z j.F j.j.y = = = ; d ",
"[ $ $ { + O F x x ~.O n :.7.{.v O 2.1.i.4.7.:.E e e e e M d.:.:.9.$ < C.i.i.:.E 7.i.{.E E ).c.q 9 9 0 G M e v y ~.H o d > > m | ",
"{ { + + + o o N ).Y E ;.;.Y g.!.x 9 :.0.i.i.i.9.D.1.{.:.1.1.| i.i.{ $ < i.i.0.M {.9.4.E Y E ].x g.Z x ^.G 2.Y n ].O y m > > > d ",
"      + E.].2.).Y M 1.).0 9 <.o.o 9 e 1.1.:.1.d.7.7.9.i.i.i.i.i.d.:.i.$ y.9.i.4.M 1.z.:.Y E 2.x v 9 H !.O y v Y N H ~.y d > ; > ",
"  + + { v w ~.v E 1.).P !.N 0 o.<.e E 7.M E E E E 1.i.i.0.9.:.1.d.e :.i.i.D.0.i.D.{.7.F.M E E v 0 f 0 !.F O x v e N x q | > > > ",
", (.. (.y x v E :.).H !.!.<.>.x Z '.M 1.E E E E {.9.i.4.7.:.e {.d.e e 7.i.9.d.D.i.9.d.4.4.M E e 0 n Z c.H N H x ].e N c.P = = - ",
"(.@ . q x v E M N 0 !.!.x v q 0 e E :.{.E E E M 0.i.4.;.1.e e M d.e e E 0.0.h.h.h.4.z.4.9.4.a.M 2.Z e v x N Z ~.x 0 ).N o = - > ",
"G.G.$ p O E M /.q 0 !.^.<.g.H Z e M 1.M E E M 0.i.D.{.1.e g.e t.d.M E e {.i.t.B.1 B.:.4.z.i.0.{.M ).e f 0 y e 9 /.x y n N ( ) ^ ",
"! ! ! >.e E 0 !.~.0 !.<.9 g <.e e :.:.E E {.0.i.7.{.:.e <.E.E 4.h.E :.E '.4.0.'.c 3.}.a.{.1.4.4.1.M Y e 9 q.v e f N H o N ] 1 ^ ",
"# X H.N E q.!.H N y E.9 9 <.n e E 1.M E :.r.4.:.{.:.e g x G 7.4.t.e M 1.E {.i.{.L | ) ) ( | M {.1.{.M Y e f N N 9 e 9 ].~.q.# # ",
": % 8 2.].x 0 Z Z F Z e Z Z e e :.{.M 7.4.7.M ;.1.e v x n m.e t.t.e e M 1.E 4.4.L ( ^ 1 ] ] ] a 1 M M M Y e e 9 9 e e e Z $.: , ",
"+ + g.v 0 Z e e g N e e 9 9 f M :.{.7.7.{.|.  d.e v p v I.H v :.{.e e e :.:.:.9.|.| ~ ^ / 1 ] b 1 1 ] $ # G.  (.  @ . . . @   { ",
"% : Z g.J.e e 9 9 e e e e e Y a.{.;.{.( , 8 % L Z !.F N x !.H M :.e e e e 1.{.9.t.K.~ ^ ^ ^ 1 ] ! ! ! ( 4 ( : 8 8 $.% : : : : : ",
"(.(.@ @     e e e e e '.e E {.E 3 : ~ / >   { L g.!.q.q !.x !.L.{.M e e e M ;.0.d.L a a ] a ! ! c R c 5 , ]     : , . (.@ @ . . ",
"(.(.@ @ @       $ L L r : 8 # < 8 , ( )   { < L n o y !.!.o.!.).M e {.e e e {.7.d.L ^ ^ ^ ^ / ] ! 1 ! M.. 1 $ N.r r r r r , , . ",
". . . @     + {   .   r . , 8 ] & = ( | .   $ L e 0 q !.o.H v {.Y f {.M f f Y 1.h.b ! b b b 2 ' O.b ' R   1 < 5 @ . r : : r . @ ",
", : % &   $ $ >   = : =   8 : a ~ { { ~ )   @ < e N p o.F 9 e h.2.Z e ;.e f e M |./ ! ! ] ] b b 5 2 5 5 1 | ) ! ' ' a | , % ,   ",
"( | {       = . :   = & . = | 2 > & , { > : : @ e Z p H 9 Z e d.e g.9 M M 9 f e e b } R ' 5 5 ' ' 2 2 2 1 < ( ] ] b ! / $ . . . ",
"    >   @ = @     ( ( @ @ ~ 2 R ( { | 1 a ^ / ! n n x v 9 >.v d.e 9 9 e M J.e e $ ( 1 ] 1 ^ ^ 1 ' 5 2 2 a ^ ^ ] / ] ! ] ) $ { $ ",
"' c 3.3.c R A }.K R ! b b c S S ' ! 2 R c 5 2 } A n 0 9 g.!.F 1.{.f f e Y e e e 3.3.J P.}.A P.5.A A 3.}.A c R c c c } 2 ! ! ' c ",
". @   , #.# X X P.. 8 $ < | ^ ~ ! ] ^ ~ | = & & . 9 v 9 <.o.o {.d.e e e e e e : @ , : & : %   ^ ..6 #.8 #.#.#.#.8 8 8 *.*.#.8 : ",
". . , k 6 +.V 8.^ Q.R.3 *.6 k 8 @ = . , : 8 3 3  .g.Z 9 0 x <.Y E {.e e e e e . . 8 3 #.*.*.= / ..8 . , : : & , % . > | < $ @ . ",
"@ = . . & k 3 # / ` @.= : . )   & . . =         > ( Z n <.F >.).e {.e e e e % 8 , 8 8 & & : > a ..: $   : % & . : . { ( ( |   , ",
"  = , , , : 3  .{ @.6 . 6 , ^ . $ < < $ $ $ >   . . . n Z y x n f E e f e 8 : : % 3 8 = = & > ] # @ ^ | & : . =         { >   @ ",
"( = & . . 8 *.8 ) 8 _ k & > ) < $ | ( ) ) ( < $ { > $ 9 e 0 p 2.e Y e e . , , . = : 8 k : = ^ ' . { | | $ $ $ { $ >     $ | < < ",
">     @ & k : . ^ #._ & . @ {   , .   > $ { >   > @   , '.g.P Z e e e K.8 8 8 8 k k : =     ( a ( ( ) ( < ( ( (   @ @   { $ >   ",
". { $ . 8 8 : . ' & 8 $ ( { $ { ^ ^ 1 ] ] / ^ ~ ( $ $   . e >.Z e e e {   = = = % % . > { $ ~ ! / ~ ( < < < < < ( ( ) ^ ^ ~ < $ ",
"> ( ( @ : & . . 5 8 _   { . .   1 1 / ^ ( | {   . % : % 8   0 g.e e   . : % k k . , . = @ { ] A ! ] ^ / 1 ^ ~ ~ $ { > > { > @ . ",
", . , % % : : 8 }.> . ~ ^ ( ^ ] ] ] / ^ ( | $ { $   $ | > ( / S.L | $   @ . , ,     $ | $ | a }.( $ { ( ( {   { 1 ~ < $ | < ( ( ",
"c ' ' }.S }.A c J / ^ ! a b } c ! ! ! ! b b b b } 2 c }.} c }.' } ' ' 5 ! ! b a ) 1 5 R ! 1 b c A ' R }.}.' R S } 2 ] 1 ] ! 5 ' ",
"| = > ] 1   . $   ,   > & = $ @ @ @       { $ $ 1 ) ] ! / 1 b / ] ] ] ] ] ] 1 / ^ a ' ' / > { ) = : & @ , k   ]   . , , = > $ | ",
". 8 , (   +.` #.#.: {   8 : . #.8 8 8 #.#.8 8 8 (   < ~ { $ ^ ( ( ( ) ) ) ) ( ( < < | @ 3 6...#.: *.*.8 3 # . ! 6 _ _ 3 8 : : : "};
