/* XPM */
static char * exit_xpm[] = {
"64 64 320 2",
"  	c #343D42",
". 	c #384146",
"+ 	c #333C41",
"@ 	c #363F44",
"# 	c #485156",
"$ 	c #31383E",
"% 	c #3F464C",
"& 	c #3C4349",
"* 	c #3D4047",
"= 	c #393E44",
"- 	c #393C43",
"; 	c #383B42",
"> 	c #353A40",
", 	c #3B4248",
"' 	c #1D242A",
") 	c #2C3339",
"! 	c #23282E",
"~ 	c #2A3338",
"{ 	c #323B40",
"] 	c #262D33",
"^ 	c #283136",
"/ 	c #282F35",
"( 	c #2D343A",
"_ 	c #484F55",
": 	c #3E454B",
"< 	c #2E373C",
"[ 	c #2F383D",
"} 	c #4CC416",
"| 	c #54CC19",
"1 	c #53CD16",
"2 	c #5BCD19",
"3 	c #43C415",
"4 	c #3CB41A",
"5 	c #20272D",
"6 	c #272E34",
"7 	c #464D53",
"8 	c #475055",
"9 	c #43BC16",
"0 	c #64D11A",
"a 	c #76D522",
"b 	c #7DD621",
"c 	c #81D622",
"d 	c #7BD61E",
"e 	c #73D41D",
"f 	c #7DD822",
"g 	c #79D62B",
"h 	c #464F54",
"i 	c #232C31",
"j 	c #40494E",
"k 	c #42B31A",
"l 	c #69D245",
"m 	c #82D822",
"n 	c #B5E679",
"o 	c #C9EBA7",
"p 	c #B6E46A",
"q 	c #8BDB33",
"r 	c #6CD31C",
"s 	c #4ACB15",
"t 	c #46C919",
"u 	c #67D227",
"v 	c #8ADA47",
"w 	c #83D51D",
"x 	c #30373D",
"y 	c #182126",
"z 	c #34393F",
"A 	c #3CB415",
"B 	c #9BE139",
"C 	c #9ADE4B",
"D 	c #84D92A",
"E 	c #D3EFAC",
"F 	c #FCF9F8",
"G 	c #95DD46",
"H 	c #57CB29",
"I 	c #89D673",
"J 	c #38C619",
"K 	c #35C60E",
"L 	c #34C512",
"M 	c #45C518",
"N 	c #79D634",
"O 	c #252A30",
"P 	c #1B2429",
"Q 	c #434C51",
"R 	c #42474D",
"S 	c #41444B",
"T 	c #34373E",
"U 	c #9CE049",
"V 	c #D7ECC9",
"W 	c #C9EB88",
"X 	c #97DC54",
"Y 	c #45CA14",
"Z 	c #53CD25",
"` 	c #4BCB19",
" .	c #49C926",
"..	c #87D969",
"+.	c #44CA32",
"@.	c #86DA59",
"#.	c #93DC1B",
"$.	c #3B4449",
"%.	c #30353B",
"&.	c #2C2F36",
"*.	c #282B32",
"=.	c #2BC311",
"-.	c #1AC10D",
";.	c #3CC914",
">.	c #64D215",
",.	c #77D557",
"'.	c #9DE158",
").	c #83D91D",
"!.	c #94E019",
"~.	c #9CE214",
"{.	c #87CE19",
"].	c #232A30",
"^.	c #0F181D",
"/.	c #1A1D24",
"(.	c #181D23",
"_.	c #1C1F26",
":.	c #24C30E",
"<.	c #34C72B",
"[.	c #58CD4F",
"}.	c #1CC112",
"|.	c #24C211",
"1.	c #6CD415",
"2.	c #57D114",
"3.	c #6DD60F",
"4.	c #8ADB38",
"5.	c #D5F091",
"6.	c #63CD1B",
"7.	c #A7E358",
"8.	c #A8E436",
"9.	c #8BDB1C",
"0.	c #57C418",
"a.	c #62BB19",
"b.	c #141B21",
"c.	c #1F262C",
"d.	c #3CC413",
"e.	c #13BF07",
"f.	c #15BC0C",
"g.	c #36C728",
"h.	c #2BC40E",
"i.	c #A8E44B",
"j.	c #9CDD24",
"k.	c #5BCD16",
"l.	c #1D2228",
"m.	c #1B2228",
"n.	c #12191F",
"o.	c #44494F",
"p.	c #3CAB15",
"q.	c #7BD06A",
"r.	c #67D358",
"s.	c #28C31C",
"t.	c #16C10C",
"u.	c #23BD0E",
"v.	c #2CBC12",
"w.	c #1BB40D",
"x.	c #1AAB0C",
"y.	c #24B413",
"z.	c #35BB13",
"A.	c #93DC23",
"B.	c #69CC22",
"C.	c #4B5258",
"D.	c #4F5259",
"E.	c #3F484D",
"F.	c #4BC419",
"G.	c #5ECF35",
"H.	c #63D239",
"I.	c #E9F3D8",
"J.	c #F6F8E8",
"K.	c #4AB718",
"L.	c #44AB13",
"M.	c #33A313",
"N.	c #23980E",
"O.	c #62BB15",
"P.	c #42B216",
"Q.	c #19A30E",
"R.	c #0E890C",
"S.	c #0C870B",
"T.	c #E5F3A8",
"U.	c #95DE48",
"V.	c #9CE21B",
"W.	c #ADE39A",
"X.	c #1A940E",
"Y.	c #179211",
"Z.	c #148B12",
"`.	c #13930D",
" +	c #14AB0C",
".+	c #B7E4AC",
"++	c #D4ED2D",
"@+	c #A6E229",
"#+	c #78D616",
"$+	c #424B50",
"%+	c #26B80F",
"&+	c #1DA612",
"*+	c #13A30D",
"=+	c #128C0D",
"-+	c #249C11",
";+	c #63C41C",
">+	c #239612",
",+	c #0E930B",
"'+	c #A8E51A",
")+	c #55BC1A",
"!+	c #3CA414",
"~+	c #51AD14",
"{+	c #6AC515",
"]+	c #92DD16",
"^+	c #3BBC14",
"/+	c #D5F07B",
"(+	c #8CDC22",
"_+	c #7DD81D",
":+	c #374045",
"<+	c #46BD2A",
"[+	c #23A30F",
"}+	c #3CBC18",
"|+	c #15B30D",
"1+	c #359D15",
"2+	c #8AD417",
"3+	c #AAE612",
"4+	c #94E115",
"5+	c #57B818",
"6+	c #6ACC1C",
"7+	c #7AD915",
"8+	c #84DC14",
"9+	c #198F0E",
"0+	c #77C916",
"a+	c #B2EA19",
"b+	c #A1DE18",
"c+	c #74D548",
"d+	c #48B936",
"e+	c #2CB212",
"f+	c #129B0D",
"g+	c #A8E366",
"h+	c #27AA0E",
"i+	c #1BBD0D",
"j+	c #278F16",
"k+	c #2C9C12",
"l+	c #73D616",
"m+	c #2BA413",
"n+	c #34AC14",
"o+	c #2CAB12",
"p+	c #33B413",
"q+	c #4E555B",
"r+	c #C2EA56",
"s+	c #5DD01A",
"t+	c #1C9A0E",
"u+	c #A6D826",
"v+	c #47AA15",
"w+	c #9BDD16",
"x+	c #95DB66",
"y+	c #D3ED6A",
"z+	c #1B9411",
"A+	c #1C9B11",
"B+	c #A3E413",
"C+	c #EFF4E3",
"D+	c #87CB7A",
"E+	c #77BB18",
"F+	c #D4EBB7",
"G+	c #24A311",
"H+	c #0F9B0A",
"I+	c #93D976",
"J+	c #C9EC96",
"K+	c #B7E788",
"L+	c #97DB3B",
"M+	c #CCED7E",
"N+	c #1B8D13",
"O+	c #46A63B",
"P+	c #B2E557",
"Q+	c #53A94B",
"R+	c #CFEE71",
"S+	c #24BB13",
"T+	c #9CE12D",
"U+	c #AEEA11",
"V+	c #AEEA0E",
"W+	c #269518",
"X+	c #B4E925",
"Y+	c #B0EB0F",
"Z+	c #7ABD6C",
"`+	c #26AD16",
" @	c #6FD813",
".@	c #F0F037",
"+@	c #1C9317",
"@@	c #289523",
"#@	c #E1F29A",
"$@	c #399C35",
"%@	c #B0E58F",
"&@	c #E5F074",
"*@	c #0B8A07",
"=@	c #8CDD12",
"-@	c #BAE7A3",
";@	c #2B3439",
">@	c #C3EC49",
",@	c #52CF0F",
"'@	c #36AB2C",
")@	c #A8E60E",
"!@	c #E8F187",
"~@	c #89D92A",
"{@	c #BAEA4C",
"]@	c #1B8D18",
"^@	c #97CA86",
"/@	c #EAF5D2",
"(@	c #67CC3E",
"_@	c #33A81A",
":@	c #70C84C",
"<@	c #5CD015",
"[@	c #6BB95D",
"}@	c #171E24",
"|@	c #1BB711",
"1@	c #A7E27C",
"2@	c #81C737",
"3@	c #444B51",
"4@	c #4F565C",
"5@	c #565960",
"6@	c #555C62",
"7@	c #AED8A8",
"8@	c #50575D",
"9@	c #70BE3E",
"0@	c #9DE095",
"a@	c #151C22",
"b@	c #8DDE0F",
"c@	c #94E111",
"d@	c #535A60",
"e@	c #51585E",
"  . + @   # $ % & & * = - ; > > -   > $   , . $ ' ) ! ~ { ] ^ ^ ~ ^ ^ / / / ^ ^ ) ] ) ( _     & , @ & : , % : < % & = = . , . @ ",
"[ + {   + # { : -   - - ; - = = > > $ < $ @ > } | 1 2 2 | | 2 | | 1 } } } } 3 4 / 5 6 ^ 7 { $   .   . : . : : ( : , . . . . @ > ",
"+     @ [ 8   : & & . = = - - - = @ > $ 9 } 0 a b b b c b d b b b d d e d f g 0 2 } } 2 h @ > { .   . : . : : ( : & & & : & =   ",
".     { i j   . & & * = = - - - = @ k l g d b c m m n o p q d b a r s t s u v d f d d d d w   x   $   .   . = ^     = . , . @   ",
". $ { < y : . , - -     - = = . z A u n B b f q C D E F F E G u s s H I J K L M N g d m m m m ) x ) $ > x   > O ~ ( $   @ @     ",
", { .   P Q 7 j R S & = ; > T $ 9 2 d a r d m m D d U o V E W X s Y Z l ` s Y  ...+.@.U m f m #.{ < >   { @   6 ( x   @ = . . , ",
". $ % $.P j j   * = > %.&.*.O 9 Y 2 Z =.-.;.0 r 0 >.>.u a b g a @.@.u 1 s ` ` s ` L ,.'.).w b !.~.{.x $ < { $ ].~ ( $ $ $ $ {   ",
"< ^ . @ ^.$ ( y /.(.(.(./._.A 3 :.<.[.}.|.L L Y 1.s Y 2.3.4.5.B q G D d 6.Y L Y Y s Y | 7.8.9.c m d | 0.a.] ].b.5 ! O ! c.c.! ] ",
"  + { $ ( ~ ^ 6 x x > x T 9 d.-.e.f.+.,.d.:.:.0 a 2 | s 3  .l g.h.1 r d r 1 L :.h.L | 0 v i.j.c w c e k.1 k.l.m./.b.n.b.! x $ ~ ",
"h 8 # # # # _ h R o._ p.3 Z q.r.[.g.L s.-.t.L r 2 | 2 k.1 s K :.u.|.v.L u.w.x.w.y.z.3 0 d d A.8.G m r e e B.f / ( ( ( $ % C.D.7 ",
". , : E.E.% : & $ z F.G.` H.I.J.o +.t.f.t.-.;.3 ;.Y k.K.L.L.M.N.N.p.O.P.Q.R.S.S.R.Q.|.L s g X p T.C | =.2 U.i.V.].] ] ^   R j . ",
". , : : , @ { $ 4 Y l @.` Z W.W.g.f.t.-.=.L =.:.;.L x.R.S.S.S.S.X.L.K.L.Y.Z.S.S.S.S.`. +f.g..+5.++@+#+s :.Y f ).w / ] ] ( @ , = ",
"j $+j j : .   4 s ` ` ` s ;.|.|.t.-.=.L %+&+%+-.f.*+R.R.R.S.R.=+=+-+K.;+K.>+S.S.S.S.R.R.,+ +J g V.'+).9.U l ` b c {.x ^ )   : % ",
", , . . @ + $ ` s ` ` ` ;.:.t.t.t.:.s y.p.)+=.t.*+S.S.S.X.!+O.O.~+~+{+]+~.w !+=+S.S.R.R.S.R.*+^+).9.c f p /+(+_+c 9.x ] ].) @ & ",
"% : , . :+@ 3 s Y ` s Y |.t.t.s.r.<+[+&+}+L h.t.|+,+S.1+2+3+3+4+#+5+6+7+8+9.k.%+|+*+,+S.R.R.S.9+0+a+9.b 0 9.a+4+b 9.b+~ 6 < . R ",
": , @ { [ 9 s c+c+` Y h.-.-.t.s...d+e+}.t.t.t.f.*+9+!+O.O.L.M.^+}+^+M s s 3 A 9 ;.h.f.f+,+*+`.S.>+c a+).r | ~.3+9.m 9.^ ] ~   , ",
", . . @   6.r g+E H.h.:.=.t.t.-.k.| ;.L t.f.*+X.=+!+P.9+S.R.h+0.;+0.^+^+s ` t M 1 6.Y i+ +|+|+`.S.p.@+#.e s 7+!.!.).b 9.)   = & ",
"c.]./ ( 9 r c m q r -.L L | |.L d.L :.-.i+*+R.j+Z.1+k+R.M.3 Y 1 0 2 s ` ` ` ` ` s s s =.i+ +|+ +R.9+;+m e s #.9.l+9.b ).c.6 ] / ",
"6 ^ ~ 2+l+C C c c | :.3 0 r L 1 =.t.t.t.t.*+~+1+S.X.m+M.K.9 n+o+m+m+o+p+d.t ` ` ` 3 s e s 3 y.o+Y.S.m+b 0 :.r A.s _+b m #.] ! 5 ",
"$+h q+#+'+r+g+m s+:.=.s+r s ;.>.-.-.-.-.|+t+2+~+-+P.K.M.X.=+R.,+S.S.N.L.K.0.| s Y [+>+u+m r ;.1 ~+S.=+)+s t.;.8+l+).D g+@+_ j j ",
"/ ~ )+0 @+w d r :.-.Y 1 s+;.2.h.t.-.-.t.w.)+a.1+v+9+R.R.S.R.f+f+S.R.~+w+]+)._+s s p+R.v+j.0 | K {.>+S.m+3 t.;.8+8+!.).q (+= $ $ ",
"=   6.x+y+A.d d.t.:.K d.| K 2.t.-.-.-.h.0 ;+z+=+=+S.S.R.S.S.=+R.R.R.=+N.L.)+6+1.1 3 t+=+K.6.1 k.~.v+R.z+%+t.Y r >.4+m f m ]+= @ ",
"( ( 1.N 4.c a h.}.l r. .=.;.;.t.-.t.i+^+6+m+A+R.S.R.`.-+o+[+=+R.R.R.R.R.R.S.9+L.{+| p+R.t+s s+l+B+{+>+)+A+w.d.0 >.7+c c c 2+< ~ ",
"x $ 6+r m m d ;.s.W.C+D+Q.=.t.-.-.f.*+p.0+n+Y.S.=+m+d.s d.t+R.R.R.R.R.R.R.R.R.S.>+}+3 A+=+9 l+6+{+{.k+F.`. +:.0 2 1.m c ).E+> ( ",
"^ ( s+l+m c m s+t.d+V F+d+-.t.-.-.f.n+6+{+a.X.R.*+L 1 A X.R.R.R.R.R.R.R.R.R.R.R.S.>+s p+S.G+9.w -+{+M.i+f+H+f.Y e l+9.d 9.{.x ^ ",
"=   k.1.f c f a =.&+I+V g+:.t.-.f.p+)+n+-+9+R.f+t.Y ;+X.R.R.R.R.R.R.R.R.R.R.R.R.S.P.#+2 >+`.6._+&+>+&+t.Q.f+i+h._+>.d D c 9.@   ",
"  $ } 1 l+b D f 3 f.M u 9.h.t.f.y.;+n+e+X.*+ +f.t.M 1+S.R.R.R.R.R.R.R.=+X.A+A+=+S.M.d s p+S.P.s+%+`.*+-.Q.*+t.|.l+s+d n J+@+{ $ ",
"< x 6.e b 7.F+K+1 t.-.h.1 -.t.|+P.K.o+p+&+f.-.-.-.p+z+S.R.R.R.R.R.R.R.G+3 t Y z. +A+6.Y v.`.m+| =.A+R.|+|+ +f.i+6+u f L+7.A.< ^ ",
"O w+l+b b g+V M+8+=.;.=.v.f.f.f+z+9+G+o+=.-.-.-.y.)+M.S.S.N+=+R.R.S.R.Q.v.z.3 3 w.Q.p+Y Y G+N.F.z.-+S. +t. +R.O+P+@+q ).).f w 5 ",
"x ~.>.r f 6.H (+B Z | v.v.f. +S.S.=+G+&+:.-.-.-.9 )+X.S.>+5+9+R.`.&+f+f+,+=+w.h+Q.|+f+9 2 o+-+p.p+-+R. +t. +S.Q+R+9.D P+V.d c ^ ",
"7 ]+2.r m r 7+a+P+g {+~+0.|+`.R.S.=+X. +-.t.t.|.6.m+S.S.O.v+S.X.S+u.f+S.R.S.*+`.`.f.f+)+r 3 ;+P.}+m+R.|+t.f.*+^+#.l+D G (+i.T+j ",
"< 7+s e #.B+U+V+~.7+]+{+P.f+R.R.S.S.=+y.-.t.-.s+;+9+S.W+0+X.R.e+|.| )+`.R.R.f+*+=+`.Y.0.d l+d 9 F.M.S.f+f.f.t.s+9.>.r d b i.@+x ",
"{ >.| 4+U+U+a+X+'+>.~.0+z+S.R.R.R.S.N+{+|.t.-.0 )+R.S.v+{+R.[+d.L d #.k.z.k+f+e+K.X.Z.6+X+!.d d.Y -+=+f+f.*+|.d ).s+c+C w ]+]+z ",
"]+2.s+3+Y+U+X+/+8.X p 1+R.R.R.R.R.-+G+{+=.t.f.s p.S.S.{+2+5+3 Y ;.r ~+0.n+Q.v.0 d m+>+G y+L+'.;.k.L.9 f.f.*+3 d >.| N G 9.#.9.x ",
"{ 2 1 B+Y+U+U+a+V.7.Z+=+=+=+R.=+R.o+p+} :.t.i+d.t+S.=+{+l+!.1 Y h.d.t+*+f+X.0.0 3 X.K.J+M+W I L s | b ;.-.`+6+0  @4+8+'+++j.9.#.",
"  0.Z P+X+U+U+V+B+e z+S.R.R.R.R.S.h+e+u.-.t.-.L X.S.=+9 ` 2.s 3 d.:.&+R. +*+*+|+*+m+B.P+5.o g.K h.s b ;.=.K.r | 1.4+@+++.@A.).]+",
"  0+` @.8.U+Y+V+a+B.+@@@R.S.R.R.S.f+i+f.t.t.-.=.X.S.=+p+Y Y 3 G+e+L u.Q.R.`.`.`.G+3 H n K++.h.;.:.0 6.=.o+K.L k.l+m y+.@++m ).2+",
", } 2.>.]+V+U+r+#@@.$@O+R.R.R.R.S.`.i+-.-.-.-.L Y.S.R.K.s+|.Y p+t+o+3 3 p+m+m+A Z ,.%@x+4 i+L i+d.b n+t+f+w.-.8+@+(+X+++&@7.d 0+",
":+O.1.8+9.B+R+J.T.5..+$@*@S.R.R.S.`.i+t.-.-.-.L Y.R.S.!+=@h.L s d.o+z.s s s ` @.-@K+L+-+ +t.t. +)+6+`.S.*+t.;.b x+H.l+B+i.4.6.a.",
";@2+k.7+9.B+>@#@T.C+V Q+Q+@@S.R.S.`.f.f.f.f.-.L X.S.R.9+0+=@,@;.>.k.1 s ` ` ` H.H.l+>.|+|+ + +-+6+!+S.S.x.L _+>.J =.D i.(+_+_+2+",
"! ! 6.r '+3+V+3+L+@.'@z+$@W+R.=+R.S.|+ +`.|+-.;.z.t+S.S.k+w+)@>.>.1.1.1.1.1.k.1 3 3 y.*+=+R.=+K.K.=+S.[+3 r 4+s Y g #@W (+!.3+^ ",
"# C.#+0 (+#.r+X+).>.i+f+S.S.S.=+R.`.u.f+S.*+-.;.s ^+=+S.S.L.B+B+8+s+s Y >.=@{+L.t+=+S.S.S.=+p.)+Y.S.=+z.| ).#+k.8.!@W ~@_+9.w+# ",
": % {+2 ).4+X+'+).N d+R.Z.Q+O+S.S.A+d.t+S.f+f.L s Y G+S.S.=+v+=@'+{@i.i.P+i.F.p+p+G+=+S.Y.K.)+z+S.S.h+Y r b 0 7.T.W D ).).).: , ",
"+ + {+| 9.B+V+~._+v r.X.]@^@Z+S.S.=+^+p+=+S. +Y r s d.t+S.S.S.h+H %@/@J.J.-@H s ^+t+`.M.)+K.n+X.S.A+d.s 6.a i.T./+A.b d ).]+  { ",
"% : {.r 9.4+U+!.b B.:.|+`.]@Z.R.S.S.o+Y G+S.t+0 b r | d.x.t+S.R.t+4 (@I+%@%@H.s t 3 3 ` } ^+A+z+X.t+3 ` M )+C 7.j.~@m b 9.: : : ",
":+:+@ ]+e !.U+]+b b s f.,+S.R.R.R.S.m+| d.t+o+2 a c d r | =.e+G+A+z+t+h+3 Y ` ` ` ` ` ` s 3 o+X.R.G+` Y L 2 1 1 a 7.~@d 2+@ . . ",
":+:+@ l+| ]+a+'+8+m e %+@@+@=+=+R.R.>+0.^+Y Y s 2 d c b f 0 L e+z.^+^+p+^+^+3 3 3 3 ^+p+G+`.S.S.S.`+1 } x.z.L r c D b c $., , . ",
". . . k.` '.#@#@M+8.).} A+Y. +`.R.R.=+K._@}+` s s | e b b d 6+)+p.m+G+t+z++@X.G+n+A K.p.9+S.S.S.X.v.} k+Y.v.s (+c c c : : $.. @ ",
", : % & | u i./+T.>@~. @i+f+*+|+`.S.S.m+)+O+:@s ` ` 1 0 e 0.k+p.)+;+6+;+:@:@9 6+r B.;+P.9+S.`.o+p+y.o+]@D+G.k.m D m #.x , % ,   ",
"( x {   0.Y <@7+!.B+U+4+r J  +i+ +S.S.=+)+)+z+p+s ` s Y 3 0 K.=+R.X.M.P.P.m+-+-+>+X.X.z+G+e+^+e+`.f+,+@@F+..1 d g g #./ $ . . . ",
"    >   @ | Y Y s >.9.9.q %@l I+[@=+*@S.-+6+M.`.^+s 3 3 3 z.9 p+G+X.=+R.R.R.`.-+o+z.^+^+p+m+z+X.R.S.S.Z.q.l Y | ` ;+! ] ) $ { $ ",
"' y }@}@y m.F.s ` @.4.b D U ~@U.:@y.|@Q.j+>+>+S.W+^+^+G+_@A+=+t+e+z.^+z.p+}+H ` ^+G+z+9+`.`.Q.&+=+=+>+A 2 2 u ` y y l.5 ! ! ' y ",
". @   , $+# C.9 Z -@K+b m _+m m d 1@-@1@2@X.S.Z.Q+W+o+^+o+f+,+,+R.=+t+h+p+<+D+H K.-+`. +|+ +A+Q+W+)+a D c b 2 $+j j j 3@3@$+j : ",
". . , R h 4@5@6@k Z  .2 b c m m f p n g+g i+@@$@+@S.S.X.p+J g.S+|+*+R.*@ + +Q.Q.e+u.i+w.f+S.S.Z.>+B.m D r | !+, % . > x < $ @ . ",
"@ = . . & R 7 # / p.L h.` e c m c b d d | }.q.7@<+X.Z.@@]@[@7@Q+H+*+'@[@y.t.f.|+ +*+`+q.Q+S.k+K.;+b m b 0.% & . : . { ( ( x   , ",
"  = , , , : 7 D.{ 8@4 K h.2 b A.(+0 2 1 s -.L G.,.[.^@7@+@Z.]@Z.j+j+^@Z+A+f+,+R.S.S.=+$@$@+@1+;+A.j.d 0 k : . =         { >   @ ",
"( = & . . j 3@j ) j _ 3 h.L | 6.2 ` 3 :.:.-.-. .-@W.,.l d.e+A+=+N+N+W++@f+H+,+`.X.>+R.`.9@(@j.e r c 6.k $ $ $ { $ >     $ x < < ",
">     @ & R : . ^ $+_ ;+l+L :.L Y ` d.t.s.s.t.=.Z Z Y Y ,.@.F.p+t+=+o+^+ .t s 6.e X Z | e k.e r 9.).) ( < ( ( (   @ @   { $ >   ",
". { $ . j j : . ' & j $ ( ]+2.h.=.h.L t.[.r.t.-.;.s s ` ..,.` c+,.v.;.l F+g+J+J+J+o n X G G D 9.3+w+( < < < < < ( ( ) ^ ^ ~ < $ ",
"> ( ( @ : & . . c.j _   { . b+=@ @2.d | =.}.t.t.:.Y s Z I+Z Y ..0@|.Y I+o K+F F F F F J.J.C+n 4+'+] ^ / 6 ^ ~ ~ $ { > > { > @ . ",
", . , % % : : j a@> . ~ ^ ( ^ ] ] 3+B+4+7+;.-.<.s.:.;.L =.L h.|.J | d g v N K+I.J.F F F I.K+T+B+( $ { ( ( {   { 6 ~ < $ x < ( ( ",
"y ' ' a@n.a@/.y b./ ^ ! O ].l.y ! ! ! E+0+]+l+U.H.h.;.d.h.-.h.| d w m a 1@H | N U.7.g+P+8.B+b+y /.' m.a@a@' m.n.l.5 ] 6 ] ! c.' ",
"x = > ] 6   . $   ,   > & = $ @ @ @       { w B+B+4+=@8+8+7+8+~.B+B+B+~.V.=@=@b@c@B+)@)@B+> { ) = : & @ , R   ]   . , , = > $ x ",
". j , (   4@d@$+$+: {   j : . $+j j j $+$+j j j ( B+B+B+3+3+3+3+3+3+)@)@V+U+V+3+3+B+x @ 7 e@q+$+: 3@3@j 7 # . ! h _ _ 7 j : : : "};
