/* XPM */
static char *_b5f6337ac684779cf2c5dfc48d8421aFJUSqORFuGqiOBHi[] = {
/* columns rows colors chars-per-pixel */
"64 64 218 2 ",
"   c #020B10",
".  c #070E14",
"X  c #0C1319",
"o  c #0D141A",
"O  c #0E151B",
"+  c #0F161C",
"@  c #0F181D",
"#  c #11161C",
"$  c #10171D",
"%  c #11181E",
"&  c #12191F",
"*  c #131A20",
"=  c #141B21",
"-  c #151C22",
";  c #141D22",
":  c #161D23",
">  c #171E24",
",  c #181D23",
"<  c #1A1D24",
"1  c #191E24",
"2  c #181F25",
"3  c #1C1F26",
"4  c #172025",
"5  c #192026",
"6  c #182126",
"7  c #1A2127",
"8  c #192227",
"9  c #1D2027",
"0  c #1B2228",
"q  c #1A2328",
"w  c #1D2228",
"e  c #1C2329",
"r  c #1B2429",
"t  c #1D242A",
"y  c #1E252B",
"u  c #1D262B",
"i  c #1F262C",
"p  c #1E272C",
"a  c #1F282D",
"s  c #20252B",
"d  c #21262C",
"f  c #20272D",
"g  c #22272D",
"h  c #21282E",
"j  c #20292E",
"k  c #23282E",
"l  c #22292F",
"z  c #212A2F",
"x  c #24292F",
"c  c #232A30",
"v  c #222B30",
"b  c #262930",
"n  c #252A30",
"m  c #242B31",
"M  c #232C31",
"N  c #252C32",
"B  c #242D32",
"V  c #272C32",
"C  c #262D33",
"Z  c #252E33",
"A  c #272E34",
"S  c #262F34",
"D  c #282B32",
"F  c #282D33",
"G  c #292E34",
"H  c #282F35",
"J  c #2C2F36",
"K  c #273035",
"L  c #293036",
"P  c #283136",
"I  c #2B3036",
"U  c #2A3137",
"Y  c #293237",
"T  c #2D3037",
"R  c #2C3137",
"E  c #2B3238",
"W  c #2A3338",
"Q  c #2E3138",
"!  c #2D3238",
"~  c #2C3339",
"^  c #2F3239",
"/  c #2E3339",
"(  c #2B3439",
")  c #2D343A",
"_  c #2C353A",
"`  c #2F343A",
"'  c #2E353B",
"]  c #2D363B",
"[  c #2F363C",
"{  c #2E373C",
"}  c #2F383D",
"|  c #30333A",
" . c #31343B",
".. c #30353B",
"X. c #32353C",
"o. c #31363C",
"O. c #30373D",
"+. c #33363D",
"@. c #32373D",
"#. c #34373E",
"$. c #31383E",
"%. c #30393E",
"&. c #33383E",
"*. c #32393F",
"=. c #313A3F",
"-. c #35383F",
";. c #34393F",
":. c #333A40",
">. c #323B40",
",. c #363940",
"<. c #353A40",
"1. c #343B41",
"2. c #373A41",
"3. c #363B41",
"4. c #333C41",
"5. c #353C42",
"6. c #343D42",
"7. c #373C42",
"8. c #363D43",
"9. c #353E43",
"0. c #373E44",
"q. c #363F44",
"w. c #383B42",
"e. c #393C43",
"r. c #383D43",
"t. c #3A3D44",
"y. c #393E44",
"u. c #383F45",
"i. c #3B3E45",
"p. c #3A3F45",
"a. c #374045",
"s. c #394046",
"d. c #384146",
"f. c #3B4046",
"g. c #3A4147",
"h. c #394247",
"j. c #3D4047",
"k. c #3C4147",
"l. c #3B4248",
"z. c #3A4348",
"x. c #3E4148",
"c. c #3D4248",
"v. c #3C4349",
"b. c #3F4249",
"n. c #3E4349",
"m. c #3B4449",
"M. c #3D444A",
"N. c #3C454A",
"B. c #3F444A",
"V. c #3E454B",
"C. c #3D464B",
"Z. c #3F464C",
"A. c #3E474C",
"S. c #3F484D",
"D. c #40434A",
"F. c #41444B",
"G. c #40454B",
"H. c #41464C",
"J. c #40474D",
"K. c #42474D",
"L. c #41484E",
"P. c #40494E",
"I. c #43484E",
"U. c #42494F",
"Y. c #414A4F",
"T. c #45484F",
"R. c #44494F",
"E. c #434A50",
"W. c #424B50",
"Q. c #444B51",
"!. c #434C51",
"~. c #454C52",
"^. c #474C52",
"/. c #464D53",
"(. c #454E53",
"). c #474E54",
"_. c #464F54",
"`. c #484B52",
"'. c #4A4D54",
"]. c #494E54",
"[. c #484F55",
"{. c #475055",
"}. c #495056",
"|. c #485156",
" X c #4A5157",
".X c #495257",
"XX c #4C5157",
"oX c #4B5258",
"OX c #4A5358",
"+X c #4C5359",
"@X c #4F5259",
"#X c #4B5459",
"$X c #4D545A",
"%X c #4E555B",
"&X c #4D565B",
"*X c #4F565C",
"=X c #4E575C",
"-X c #4F585D",
";X c #50555B",
":X c #50575D",
">X c #51585E",
",X c #50595E",
"<X c #52595F",
"1X c #515A5F",
"2X c #535A60",
"3X c #525B60",
"4X c #565960",
"5X c #545B61",
"6X c #535C61",
"7X c #555C62",
"8X c #545D62",
"9X c #565D63",
"0X c #555E63",
"qX c #595C63",
"wX c #5B6268",
"eX c #5D646A",
"rX c #636A70",
"tX c #697076",
/* pixels */
"6.d.4.q.6.|.$.Z.v.v.j.y.e.w.<.<.e.6.<.$.6.l.d.$.t ~ k W >.C P P W P P H H H P P ~ C ~ ) [.6.6.v.l.q.v.V.l.Z.V.{ Z.v.y.y.d.l.d.q.",
"} 4.>.6.4.|.>.V.e.6.e.e.w.e.y.y.<.<.$.{ $.q.<.) w ~ k P O.C H H P P H A A A H H H f A P /.>.$.6.d.6.d.V.d.V.V.) V.l.d.d.d.d.q.<.",
"4.6.6.q.} {.6.V.v.v.d.y.y.e.e.e.y.q.<.$.>.q.<.) i $.C ~ $.A W P H A C C C C A H P k C H _.q.<.>.d.6.d.V.d.V.V.) V.v.v.v.V.v.y.6.",
"d.6.6.>.M P.6.d.v.v.j.y.y.e.e.e.y.q.<.$.>.q.<.) t $.A P ) n P H A A C C C A H P ~ c C A [.d.6.O.6.$.6.d.6.d.y.P 6.6.y.d.l.d.q.6.",
"d.$.>.{ 6 V.d.l.e.e.6.6.e.y.y.d.;.$.O.) $.6.>.~ < { n c C t n k A C C C C A P P ~ n C k P.q.>.~ O.~ $.<.O.6.<.n W ) $.6.q.q.6.6.",
"l.>.d.6.r !./.P.K.F.v.y.w.<.#.$.O.$.{ { >.d.y.$.6 >.P n C i C c n n n n C C H H O.P P k V.<.>.) >.{ <.6.>.q.6.A ) O.6.q.y.d.d.l.",
"d.$.Z.m.r P.P.6.j.y.<...J D n k P P P W $.d.d.>.0 6.W n n i A c k k f k k c C C ~ P A 6 >.P ~ P ) W O.$.{ >.$.c W ) $.$.$.$.>.6.",
"{ P d.q.@ $.) 6 < , , , < 3 9 w w w t i A { O.W = { n w 0 > i 0 t t t t i k k c f t w X k 6 t w f w k c f C c = f k n k i i k C ",
"6.4.>.$.) W P A O.O.<.O.#.v.#.# O.) ) { { ) H C { W H P ) ) ) ) 6.P + k 6.W H n f k n A P W ~ ~ c n n c k i w 0 < = & = k O.$.W ",
"_.{.|.|.|.|.[._.K.R.[./.[.qX4Xy.;XoX_./././././.P.P.W./.[.[.[.[.>X[.) V.2X@X@X|.@X%X%X*X:X:X*X*X:X%X|.W.l.>.~ H ) ) ) $.Z.oX@X/.",
"d.l.V.S.S.Z.V.v.$.;.y.<.w.[.@Xj.[.P.l.y.d.v.Z.P.y.l.Z.K.Z.Z.Z.Z.|.P.C $./.K.Q.W.l.l.l.d.d.q.6.>.P.K.V.d.6.$.) P c C C P 6.K.P.d.",
"d.l.V.V.l.q.>.$.O.O.;.) T j.`.j.P.v.6.<.6.d.V.Z.v.P.W.Z.V.V.Z.Z./.P.H $.P.l.V.d.P.P.P.K.V.l.y.q.) { $.<.6.y.d.l.A H C C ) q.l.y.",
"P.W.P.P.V.d.6.$.y.6.y.;.| j.`.V.K.V.d.d.V.K.P.P.P._./.P.K./.|._.W./.$.l.|.P.P.V.d.d.d.d.y.6.<.>.q.q.y.d.l.v.V.V.y.q.O.P ~ 6.V.Z.",
"l.l.d.d.q.4.$.$.O.) ;.O.| e.F.6.<.>.>.6.y.d.d.d.q.v.l.6.d.Q./.Z.~ 6.C O.Z.d.v.q.P.P.P.P.P.K.Z.Z.y.q.6.6.6.6.6.6.l.d.O.C c ~ q.v.",
"Z.V.l.d.a.q.q.q.<.O.6.y.w.v.D.$.<.$.$.<.y.l.l.l.l.Z.V.d.P.|.Q.6.P 6.C ) v.d.Z.v.y.y.d.d.d.y.q.q.d.d.d.d.d.v.V.V.V.V.q.W A { d.K.",
"V.l.q.>.} } O.$.<.) <.y.<.e.;.n ) W P W { >.6.q.V.P.Z.l.P./.y.c O.l.P ) l.y.P.Z.v.v.V.V.V.v.d.d.d.y.6.6.6.6.q.y.6.y.<.P C W 6.l.",
"l.d.d.q.6.6.6.<.O.A c ~ 6.<.F 6 y.d.>.d.{ P d.O.q.y.v.P.W.V.$.P V.<.W ) q.K.P.K.l.V.V.l.V.P.V.6.y.y.q.q.y.d.y.6.d.P.6.C ~ 6.y.v.",
"i c H ) $.<.<.<.w i n n w - 6 k $.$.H ~ i 6 P f i k C W { $.{ ) <.W c c P ) ~ H >.) ~ ) >.<.$.) P ) ) ) <.v.v.6.n ) C 6 i A C H ",
"A P W W C t - + 0 > < i n k i k ) ) n A 6 - P k H P P H A P ) O.~ C k k n C k 0 c - o - t 6 - > - 6 > # = i 0 X t P n 6 f C k f ",
"W._.%X>X2X>X%X|.W.d.d./.%X/.v.y./._.K./.d.d.2X%X>X>X*X|.W.W._.@X:X*X*X>X7X7X>X%X*Xd.O.d.K.d.6.d.q.V.y.~ { d.$.t /.>XoXK./.[.P.P.",
"H W $.y.V.W./._.oX@X>X>XW.O.$.Z.$.6.{ <.P W /.Q.O.$.<.$.O.O.<.d.O.$.6.d.v.v.d.y.[.>.H { $.P C W n ~ W C W 6.$.k V.[.K.$.6.y.$.$.",
"y.6.<.$.$.$.$.$.v.O.~ $.) n A <.V.P.l.V.$.O.oX|.6.y.d.l.d.d.d.d.P W { O.{ { { O.W.6.) { ) C n H C P ) ) $.q.6.{ /.:X[.d.V.Z.y.q.",
") ) { O.$.<.6.q.V.H f >.Q.P.d.d.q.l.6.q.H n V.l.q.6.<.>.$.{ P A W ) O.{ ~ ) $.6.q.<.{ W A n n C H H ) $.{ H A W <.P.V.<.y.y.{ W ",
"O.$.$.>.>.>.>.>.O.W 6.|.|.y.$.q.q.v.y.l.W A Z.V.q.>.{ { O.{ W C H W ) ~ P ) <.d.O.6.<.W C A P H H C ) q.>.C A $.$.P.P.l.K.Z.<.) ",
"P ) >.6.>.$.$.>.<.c ) P.K.6.y.v.y.y.6.$.) ) $.6.W ) ) ~ P H P ~ ~ ~ ) ) ) { { O.<.) P P P A A W f ~ O.P P O.$.W ) d.P.K.l.6.O.P ",
"y.6.>.$.<.6.q.6.Z.A W K.V.O.$.d.l.v.d.{ C n ~ 6.<.>.$.) ~ W ~ ) $.$.$.>.<.6.6.6.) C k C A C n C P { $.O.{ O.) P c ) 6.6.<.6.q.6.",
"6.$.) ) >.6.<.$.l.t i d.d.) $.v.V.Z.l.) i t P 6.A n k f c A P ~ W W ~ ) { $.$.$.~ n f C P P C n $.) { >.$.P k i C { 6.6.>.<.>.$.",
"{ O.$.6.y.y.6.$.Z.k c Z.P.<.q.K.P.P.V.>.P P $.v.6.$.) ) $.6.d.d.q.q.d.d.v.V.Z.Z.) n k A ~ P C k 6.) ) 6.>.C w t A $.l.d.6.>.{ P ",
"n H W H k i k A q.t k 6.$.c f k ~ P A n n C H W P C c k k c c c C C C H P P W ~ t - * < 0 < * & t < 0 C C 0 - > = w f t 0 t f f ",
"O.$.) n < - t P H 0 k { P k f t A C n C P ~ P H - 6 f c n C C A A H H P P P W W <.) ) O.$.) ) { t f A ) { W P ) ~ ) A 0 - w C P ",
"/._./.V.6.$.6.l.~ ~ 6.l.<.y.Z.d.l.l.v.v.l.l.l.d.O.l.|.>X>X:X>X7X:X:X:X:X:X*X*X*X>X:X>X4X2X:X4XwXv._.%XoX_./.|.|.>X>X|.l.>.q.V.P.",
"{ <.d.V.v.6.{ W n P $.~ k W <.~ W ) { W n k n H P q._.oXQ.v.d.v.q.q.q.6.6.6.6.6.{ { $.6.>.$.d./.6./.XXV.$.$.<.$.) <.e.O.~ ) O.O.",
">.6.6.q.a.6.} P $.$.} { { ) ) ) ~ W P P A C C n C P /.P.6.V.<.) q.<.$.>.6.6.6.>.6.>.>.6.6.q.V./.O.F.R.y.O.<.w.;.e.e.w.y.y.y.w.;.",
"} $.$.>.4.>.{ P ) ) ( W W P P P P P H A C n c c n n V.d.$.Z.l.d.>.$.{ ) { O.$.$.$.{ O.>.>.$.q.V.O.D.R.y.O.<.e.;.<.#.#.;.<.<.#.O.",
">.>.4.4.4.$.$.$.) ) ) ( W W P P H A C C n c k k i 6 { W n $.O.$.>.>.$.{ ) { $.6.>.$.$.<.>.$.<.d.~ y.v.w.O.;.<.#.w.<.#.#.<.<.<.;.",
"6.6.6.4.$.( ) $.) ) ) ( W P P P A C C C n c k k f 6 ) W c P c k O.$.>.$.{ { $.<.$.O.$.<.>.) O.6.n | <.#...#.<.;.e.<.O.O.;.<.w.<.",
"6.4.4.>.W k M ( W W P P P K A A A C C C n n c c n t y.V.y.l.O.) W ) $.$.$.{ ) ) O.) ) $.) P W O.s H ..O.$.<.6.6.<.O.....O.<.<.<.",
"l.a.d.a.) a c ) ) ) ) ) ( W P P C C C C n n n c k 6 q.W.W.|.Z.Z.O.O.$.<.6.6.$.) >.O.O.$.{ W ) $.f F ..;.<.6.e.e.6.<.;.<.6.y.y.e.",
"a.q.d.l.) t k { ) ( ( W P P P P c c c c c k k k k = P <.<.V.y.v.6.O.W ~ $.6.$.) $.) ) ) W H W $.x C ~ O.;.O.O.O.;.$.$.<.e.y.e.<.",
"( ( $.>.C - 6 K k k k k a i t t k k k k k k k k W - c C k P H { $.A w w C W P C A c k k i t k P f x H ) ) P F F F F H T ) ) ~ P ",
"k k k a a a i i 6 k t C k i k   X i n k C C t t w < i c f C H t k i A k k 6 . < 6 > - - 6 t k k C C = o ) C { t k k k k c C A P ",
"|.oX#X%X>X2X6X7X>X7X-X>X|.!.!.M |.7X2X@X:X*X_._./.d.P.@XW.V.Q._.%X@X2X@X%XW.W 6.>.O.~ ~ ) O.$.$.{ >.W { 2X[.4X|.Q./.[.|.|.|.|.|.",
"V.Z.P.W./.{.|.oX/.#X!.|.!.W._.P %X>X/.v.W.Q.V.V./.y.K.@XZ.>.V.oXP.Z.[./.%X|.{ 6.$.) P A C C C n A K K $.-Xd.!.S.l.V.S.W.W.S.V.l.",
"4.4.4.4.4.4.4.4.$.a.$.m.l.S.|.{ /.P.O.H 6.d.6.d.P.d.V.P.6.6.P./.l.q.V.l.[.|.O.<.>.O.W P H A C c A A C $.|.( 6.a.6.q.d.d.d.q.6.>.",
"Z.V.V.l.d.a.q.6.d.V.q.V.V.P.oX$.%X/.$.) l.P.Z./.P.W.W.d.<._.>XP.@X/./.v._.oX$.<.$.) W P P P A C k k k ) {.) V.P.P.S.Z.V.V.V.V.V.",
"a.a.q.q.6.6.4.4.>.a.$.d.d.V./.W /.V.W H <.6.>.l.d.P.K.) ~ |.>Xd.W.V.V.$.l.P.~ ) A C n n C n k k 6 0 6 i l.C 6.6.V.l.d.a.q.q.d.d.",
"a.a.q.q.q.6.6.6.$.q.4.m.V.P.|.{ P.l.) ~ 6.>.{ d.V.W./.6.O.Q.*XV.l.v.V.$.l.P.) { W P P P P P H C k A k a d.A $.K m.m.m.m.m.l.l.d.",
"d.d.d.q.6.6.4.>.6.d.6.m.d.l.P.C v.y.) O.d.6.$.v.d.d.Z.y.W >.K.V.V.K.Q.<.y.d.k f C c k c c c f t 4 c t 0 6.A { i q.d.m.V.V.m.d.q.",
"l.V.Z.v.6.$.$.<.6.y.V.y.6.P.V.n W >.>.W ~ 6.q.{ d.O.) Q.c >.d.K.l.l.6.<.6.H t C O.H k k C C c c i f i i A O.~ k t t n O.l.Z.l.6.",
") O.>.6.6.6.y.d.V.6.y.v.d.y.O.f <.v.l.>.<.V.V.q.d.6.>.V.C V.K.d.d.d.<.>.q.~ n ) P c w 0 t i i t t f f f A { ) C C c k H $.d.d.d.",
"6.6.<.6.q.y.q.6.6.) ) q.q.W f 0 ) >.O.A n P H k P W A P w >.>.n C P n C ) P A $.$.) A C A P P A t i f f n P P C H C k C ~ $.>.$.",
"t 6 > > 6 0 < - # 0 k c c 6 & & t k f 0 6 i f w < < > 6 - 0 w 0 < w - = 0 < - t > > = * - < * o < < > - < 6 0 6 6 6 w f k k t 6 ",
"d.q.6.l.W.|.oXoX* d.P.$.{ O.P W k C P W O.y.v.v.d.$.q.K.K.~ >.oX>X7X@XW.Q.Z.y.V.q.l.V.v.V.Z.6.P %X_.W.P.W.W.W.W.P.P.P.Q.Q.W.P.V.",
"d.d.l.K._.*X4X7XP eXrX/.Q._.K.P.q.y.d.l.V.P././.@XP.|.>XwXy.W.tXK.[.P.d.V.V.q.d.d.P./.W.Q.Q.y.H %XP.d.l.V.V.v.l.Z.d.<.O.{ $.q.d.",
"q.y.d.d.v.K./.|.H 2X:Xy.V.d.~ 6.v.d.d.y.6.6.6.6.<.) $.$._.A $.2XP 6.6.$.V.P.Z.P.l.P.P.v.v.V.<.n %XV.$.6.V.Z.v.d.V.d.>.) ) O.6.l.",
"6.y.l.l.l.V./.@X>.:X_.d._.l.P d.$.{ { $.$.$.<.6.d.d.d.{ %X6.K.7XP y.q.>.V.P.V.V.Z./.P.y.y.v.<.C |.q.P O.v.V.d.y.6.6.6.6.>.<.6.q.",
") y.v.d.d.P.Q.P.~ P.[.K.v.<.~ { $.O.) ~ ~ ) { $.>.<.$.6.v.6.d.>X) { <.y.d.l.l.d.y.V.P.K.V.y.P t d.>.O.O.$.$.$.>.$.<.6.6.$.O.{ { ",
"<.6.6.q.v.K.V.d.P W.[.v.d.q.>.6.l.d.6.<.$.>.<.6.<.q.6.l.Z.<.<._.>.6.d.V.P.P.P.P.K.K.V.y.6.6.) n ) ) ~ ) { ) ) ) 6.q.q.6.>.$.<.6.",
"d.>.$.d.P.P.V.d.t v.P.$.) >.$.>.P P A C C H P W ) $.$.6.d.~ C >.H W { >.6.y.y.y.Z.Z.d.<.>.$.W k H W ) { { { { { ) ) ~ P P W { $.",
"<.) ) q.V.v.d.d.i P.[.6.>.d.d.6.A A H P ) O.>.6.d.Z.V.Z.P.6.{ d.$.>.6.d.V.Z.K.K.d.l.d.y.q.>.C < k C P H A P W W $.>.<.<.>.<.q.d.",
"l.d.l.Z.Z.V.V.P.- <.d.W P ) P C C C H P ) O.$.>.$.6.$.O.<.) H $.{ O.$.6.q.d.l.l.6.6.$.O.$.O.n - ) $.>.) ) >.6.>.A W { $.O.{ ) ) ",
"6 t t - & - < 6 = H P k n c w 6 k k k k c c c c w f 6 - w 6 - t w t t i k k c n ~ A i 0 k A c 6 < t 0 - - t 0 & w f C A C k i t ",
"O.y.<.C A 6.d.$.6.l.6.<.v.y.$.q.q.q.6.6.6.>.$.$.A ~ C k H A c H C C C C C C A H P n t t H <.>.~ y.V.v.q.l.K.6.C 6.d.l.l.y.<.$.O.",
"d.P.l.) 6.*X2XW.W.V.>.6.P.V.d.W.P.P.P.W.W.P.P.P.) 6.{ W >.$.P ) ) ) ~ ~ ~ ~ ) ) { { O.q./.>X%XW.V.Q.Q.P./.|.d.k _.[.[./.P.V.V.V."
};
