/* XPM */
static char * floor_xpm[] = {
"64 64 111 2",
"  	c #27160E",
". 	c #29160D",
"+ 	c #2C170D",
"@ 	c #2B170D",
"# 	c #2C170E",
"$ 	c #2A170E",
"% 	c #28160E",
"& 	c #2C180E",
"* 	c #2F1A0F",
"= 	c #2D180F",
"- 	c #29170E",
"; 	c #2C180F",
"> 	c #26160E",
", 	c #2B170F",
"' 	c #2A170F",
") 	c #2B170E",
"! 	c #2F1910",
"~ 	c #301A0F",
"{ 	c #2F190F",
"] 	c #25150E",
"^ 	c #26150E",
"/ 	c #28160D",
"( 	c #2D190F",
"_ 	c #321B10",
": 	c #311B10",
"< 	c #2B180F",
"[ 	c #2C170F",
"} 	c #2E1910",
"| 	c #29160E",
"1 	c #2E190F",
"2 	c #28160F",
"3 	c #301A10",
"4 	c #341D10",
"5 	c #351D10",
"6 	c #2A170D",
"7 	c #341D11",
"8 	c #381F12",
"9 	c #3A2012",
"0 	c #371E11",
"a 	c #361E11",
"b 	c #2E180F",
"c 	c #341C11",
"d 	c #331C11",
"e 	c #351D11",
"f 	c #331C10",
"g 	c #2D180E",
"h 	c #321B0F",
"i 	c #3B2013",
"j 	c #3B2113",
"k 	c #28170F",
"l 	c #29160F",
"m 	c #301910",
"n 	c #311A11",
"o 	c #301A11",
"p 	c #311A10",
"q 	c #371E12",
"r 	c #392012",
"s 	c #3C2113",
"t 	c #2F1A10",
"u 	c #2D1810",
"v 	c #391F12",
"w 	c #3E2214",
"x 	c #3D2113",
"y 	c #2D1910",
"z 	c #351E11",
"A 	c #321B11",
"B 	c #321C10",
"C 	c #361D11",
"D 	c #27160F",
"E 	c #29170F",
"F 	c #3A1F12",
"G 	c #391F13",
"H 	c #3F2314",
"I 	c #402314",
"J 	c #331B10",
"K 	c #3A2013",
"L 	c #381E12",
"M 	c #422415",
"N 	c #412415",
"O 	c #341C10",
"P 	c #301B10",
"Q 	c #371F12",
"R 	c #2C1810",
"S 	c #2E1A10",
"T 	c #3D2213",
"U 	c #301B11",
"V 	c #3B2012",
"W 	c #412315",
"X 	c #371F11",
"Y 	c #3D2214",
"Z 	c #3F2214",
"` 	c #2E1A0F",
" .	c #3E2213",
"..	c #311B11",
"+.	c #2B1810",
"@.	c #361E12",
"#.	c #361D12",
"$.	c #3A1F13",
"%.	c #321C11",
"&.	c #3C2114",
"*.	c #402315",
"=.	c #2C190F",
"-.	c #331B11",
";.	c #24150E",
">.	c #25150D",
",.	c #21130D",
"'.	c #24140D",
").	c #24140E",
"!.	c #2A180F",
"~.	c #351D12",
"{.	c #311B0F",
"  . + @ @ + + # $ % & * * = # % - & # # & ; ; ; >   $ , % % = ; ; = ' $ ; % & & ) # ! ! = = ; & ! = ) $ ; ~ { # @ % @ # + + & , ",
"] ^ ^ ^   / + # $ ] % = ; ; ; ) ( _ : - ; = = = < ' [ = , , = = = = ; = } , ! % | = 1 = < 2   % = ; 3 _ 4 5 _ & | ]   $ # & ) ) ",
"6 $ ^ ] % ) # # # $ $ ^   # ; ; = ! 7 8 9 0 a 3 1 } b = = = b b } c d } 1 b } * %   , = = , ) ) ; 1 e f 3 1 g # ) ) $ % ^ ^ % | ",
"+ + ) @ # 1 h f ~ ; ; , , | % # = b ! d i j e ! } ' , ! 1     %   k 2 2 ! 1 ! ! } %     , 1 1 1 = 1 1 } $ | & # & = &   ] % ) # ",
"  6 + # # $ ^ | ;   ,   ; = = = , > l } 3 = 3 m 1 l > ^ ^ ^ = = 1 ! ! ! 3 m 3 3 ! { } } ! ! } | ! = = = = = = 1 = = = ; ; ; & ; ",
": : b # ; ; ; $   ^ 2 } = f 3 ! ! = ^ , 3 3 n o f e _ m 3 3 p 3 o q r 9 s p 3 2 t ! 3 m 3 =     p , = ! } } = } } } } _ 4 : ; ; ",
"| # # ; = = = = } u   ! t p e _ 3 3 3 n 3 3 3 n 3 p _ f p : p : p p v w x : p 2   1 p 3 y % % 3 % = 3 ! ! ! ! ! ! z 4 4 t = ) ^ ",
"; # ) # |   ) b 1 3 ! 3 8 v A 7 8 7 3 3 p 3 : _ B B C 8 _ _ _ _ 3 t 3 3 p : : _ : : _ c d : _ : 3 t ' % D l b = = t } ! } = = = ",
"= = ' | ; } } b b = = >   % t 3 3 n t E 2 ' t 3 : 3 : B _ e e B ; ' 2 2 ; 3 _ f B : c F i c e f : 3 1 1 ; l %   ^ } 1 ! ! 1 1 { ",
"= ! a a A ! = | % 2 2 2 E ' E E } _ _ _ < f 1 ' ' E ( : e w x f f f t E < = B 3 d 1 G w H I H v A _ : : _ 3 3 ! l ' 2 1 ! } _ a ",
"! e 9 s 8 _ = - ; : _ _ C e f _ B f C 0 f f f _ : 1 3 c C C f J _ _ _ : : : y ( p _ f B _ d v _ : _ f _ _ p : p p t m 3 3 3 : : ",
"! 3 q 9 K q _ : _ _ 4 L M M L f f L M N 8 O _ _ : _ q K v q : c 3 3 } , ; t _ _ c c d P : < } : < t 3 d c f _ _ } E = t 3 d q Q ",
"3 3 p p p p d e e _ f w s w 9 e e 9 w s w f _ e e d p p p p 3 p p : ; < ' ' ! e 8 v q ( } ( < ' } } } e v 8 c ! % < < 3 : p _ 7 ",
"( ; ! p 3 ! p q q : { f B q 9 a 0 9 0 f f t : q L 3 ! 3 3 ! ; 1 p : _ : t ; ; q d _ _ f 4 4 t ; O 4 f _ _ c e = R _ : _ n ! } 3 ",
"= 2 ' ; ; ' l < } } } ! 3 f d : : f _ 3 } 1 } } , 2 , ; ; '   ; } ! p _ _ p _ _ f C v 9 v d t } _ v K v C f J _ : _ _ 3 } ( ' ; ",
": y ; E   2 ' ; ; ; E ' ' y t < < S y ' ' E ; ; ; ' 2   E ; ; ; y } : B f e 0 e f i M M T d 3 : U V W M s O 5 a O f _ t } y ; = ",
"A _ : ! ( ( 3 _ f _ { } E ' ' ( ( ' ' E 1 t _ f _ 3 1 1 { : : _ f q 8 8 8 X 0 a e v T x a e 4 4 e a s s v e a 0 8 v 8 8 7 _ p : ",
"} = 3 _ : _ _ c v F r f 1 1 1 B _ 1 { 1 f 9 9 v O _ _ _ : 3 1 _ B v v 8 q a e 4 O e e e 4 : t t t f e e e O e e a q v v e _ : : ",
"1 E < 3 _ _ _ e i H x _ f f f 3 3 f d f _ Y Z 9 O _ _ _ 3 < < ( } y u R = t 3 t t : d f } < , ; ' 1 f d : ` t 3 ! < ; y } = t p ",
"i B 1 3 _ _ _ J O q 0 _ = y ! < < } y ; : a 0 7 J _ _ _ 3 1 ( ' E ( ( ' ' ' ' E ; 3 d f } 3 = ; t ! _ f P ; E ' ' ' ( } ' ' ; 3 ",
"K c _ _ _ ~ } _ f f f f ! t t 3 3 3 t { f f f f f 1 3 f _ _ 3 1 y _ f t S } t t _ O a 9 i s a d s s i a f _ t t t t _ _ 3 1 * _ ",
"d : ! ( ( = < = ( 1 3 O f O 8 9 i v 4 f O 3 = 1 ; < = ( = } p _ _ f J f a 8 O f v i x W s i 0 e j 9 I  .s v f O i d _ f B _ p : ",
"_ _ t y t 3 3 ( , < : 7 _ e 0 r v a e _ e : < , ( 3 3 t 1 3 c q 8 8 4 d e q f f 9 j s s e e e e e 5 K j 9 8 f f q d f L 8 8 a _ ",
"f q v 7 O f f _ _ : O 7 4 : 3 _ : 3 : 4 4 4 _ _ _ f f O e v 8 9 w s t ( } 3 O f 4 e a a e e e 4 7 e a a e 7 f f ! } ( q T s a f ",
"f 8 T s 8 8 8 4 7 O f t 3 R t _ A t u t t f f 4 4 8 8 v s T e a v e } S t : f f v 8 e e e e f : e e a e X 8 f f 3 t t ..q 0 f f ",
"3 _ q v 8 8 0 O 4 e 7 t 3 : e a z 7 : 3 3 7 e 4 f 0 8 8 8 0 3 t y ' 3 B 7 f f f L c : O 3 3 y = t t f : 7 0 f f O 7 : R ; ! } ( ",
"; y _ O _ t t J a K 9 a e 5 a a a a 4 e a V 9 a J t t : O _ u < ' ' t _ 7 f O f _ } < ! u 3 3 : 3 } } ; } _ f f f f 3 R ' < { d ",
"3 t _ f * +.< ( A @.w s T a a e e C a T x w #.: ( < ; * f _ _ : t 3 f d _ a i i s $.@.: : 7 7 e 7 _ : #.K s i 9 O f d : 3 P 7 i ",
"f d f O : 3 } < } B v N M H H H I I I M N v _ } ; } P : O f f f f O f 7 0 i H 9 K v v e e e e e e e e q v K V w i 7 f O f f O 0 ",
"t } f 4 4 f _ 3 : f e i j x Y x s x s V K e f : 3 _ f O 5 f t : f f t _ a 9 i 7 4 c 7 e F V 0 e i 9 e 7 O 7 e 9 9 7 t : f : 3 f ",
"t 3 e e 4 4 4 O B 3 3 t z : : f f 3 : e t 3 t B O 4 4 4 e e ; ; P f < y t : : 7 O 4 e 4 i H s i I i z e O 4 O : 3 t < 3 : ( ; 1 ",
"3 d _ t : O 4 e f : t ; ..%._ 3 3 _ %.: ; 3 : f e 4 4 : 3 : ' ' < t t R < < < 3 c O f P 3 #.8 9 q 3 P f 4 c t < < < S t u ' - ' ",
"< : _ 3 f _ %.e 4 a e d d a a d f a a d f e a 5 e _ _ B 3 _ t ; ; ; B A P 3 P _ B e B < 3 t d e 3 3 ; : e _ : 3 : P f ! ; ; t d ",
": f O f _ 1 } p : _ v V 0 a a e e a a 0 V 9 _ : 3 } y _ O 4 c p 3 _ O 4 O 7 : f O O O 3 e e e a e e _ f O f f : e 7 4 _ : : c s ",
"f 3 t ! : : B _ B f 9 v 0 0 a e e 0 0 a 8 9 f f _ f _ : 1 ! f f f f 3 3 t } < y } : e e a 0 4 O a a e e : } R < t ! t B f f f e ",
"_ : t t B : _ O f e a e e 7 _ 3 t : e e 4 0 e O O : P _ t t } p f f : 3 } } ( , } _ 7 e e : 3 3 : 7 5 e _ } < y } ! 3 B J _ 1 1 ",
"f f 4 f 3 = ; * 1 _ 8 0 0 K f } S f K 0 a v _ } t ; ; 3 f B } } 1 t _ _ f B _ _ 4 7 7 f t ; +.R +.t _ 7 e 4 _ d _ f f 3 } 1 } < ",
"f f f f : 3 t 3 d j w Z T i a d c a i w Z w &.7 : 3 3 : f f : 3 3 3 q e O O 4 O e 8 s i : 3 3 : : : v x 8 5 O 4 O O 0 d 3 3 _ t ",
"} B P ! } 3 e V w M M M V a O e 7 O a 9 M M N w i e 3 } ! 3 _ 0 s s Z s v f _ _ p c q i 7 c f O 4 7 v q d 3 _ _ O s w T s v B _ ",
"' : 3 R +.y A v v K j K f e 8 8 v 8 e d 9 9 v v 8 ..u < y 3 q T W K 9 v 8 O : y R } : c f i q f s e c : } ; } : 7 v v 9 w w 8 : ",
"t _ _ P t t 3 f f t 3 : 3 7 9 r v F 7 3 P 3 t B f 3 3 3 : B q i i f f f 7 O f t } d c 7 e r a f 9 a 7 7 d ! 3 O 7 f d f 8 K 8 B ",
"a 0 7 e q c _ B B ! ; } t O e B _ e c t } ; t B f _ e L e f t 1 } } } : 4 4 4 f f 7 a j s a f f d i s 0 7 f f f 7 7 } y y { ! _ ",
"q i j j i e f f f O f O e 9 z : : a i e f f O f f f e i s 8 { , 2 E E y P t 3 3 p f e i s e d d f 9 9 a d 3 3 t t 3 ' E E ' 1 3 ",
"B 0 9 9 C : t 3 : 4 f 4 i H j a C s I i e f O : ~ t : C v q _ ! ; 1 } ; < } @.8 q C e e a _ _ _ : e 4 e a q 8 #.< < ( S y } : : ",
"d B B P } ; ' ' ; t 3 O 9 K H x x Z i v f t } ; ' ' < y P c q e _ f _ 3 d 8 W N i 0 e 4 : R ( } ; 3 d e a i N I q 3 : f _ c 8 Q ",
"t 3 B 3 R E , } } ! 3 _ 7 d e e e 7 d 7 %.3 t t 1 ' E R 3 c q e : : _ B a v K K e f f 7 3 y ; ; R ! d f f e F v 9 d _ _ : c @.#.",
"; = 1 3 { = t f f f v v 0 f 3 _ _ 3 f q 9 K d f f 3 1 t 3 1 3 3 : @.q d : _ f _ t 3 _ f O 3 t 3 3 f f _ 3 t _ f _ : a q d p 3 ! ",
"t ( 1 ! } ! _ _ e r N I K d _ f J J O 9 *.N v e _ _ ! 1 } 1 ! d a T T v e 3 } } ; ( : f f f J f f f f : =.; } } : q j T v c ! ! ",
": : 3 } < ' ( t d L F 8 f f ! ! ! { f f L v L d { = ' < t ! ! -.@.8 L 8 e ! ; = ; ; y _ _ _ : t _ _ _ ! = ; = ; 3 L L q q c ! ! ",
"; t 3 3 1 ; < 1 3 p : 3 y S < ) , # 1 = 3 p : 3 1 ; ; 1 ! ! b b ! 3 = ! 3 : c e f p 3 3 { t ; ' t { 3 3 : f e c 3 3 y ! ! 1 = ( ",
"= ! ! ! t 3 ! { 3 3 t = | $ , $ $ ) $ | = ! 3 t 1 { 3 ! ! b $ | < < ' ; ! p a C f p t ; $ )   ;., $ [ } p d C e 3 = ' , , $ - = ",
"! ! ; , ; ; 1 ; ; y 1 $ ) ) $ %   $ ) ) $ 1 = < ; 1 ; ; , ; ; % > ' 1 1 t p p 3 = ; ; ' $ $ >.,.$ $ $ , ; ( p 3 p } b ; 2 % ; ~ ",
", , % > - $ b b < ; 1 $ # $ $   ^ $ ) # $ 1 = ; 1 b E - ^ ; 1 ; ; t 3 3 3 3 3 ! ; ' , $ $ $ '.,.$ $ $ , ' = 3 3 t 3 3 3 = ; 1 3 ",
"'   ^ < ( ; } ! 3 ! ! } ! $ [ l - ; $ ! 1 ! ! 3 ! 1 = 1 < [ ; ; = < ; } 3 3 7 p 3 3 3 = E - ^ ).2 $ ; t 3 3 : c ! 3 R ; ; = < } ",
"; , $ = { ; | $ $ ' , 3 3 b b # , b 1 3 3 , E E - | ; { = & ) ) b , ) } 3 p c 3 3 -.a @.; %       ; c q d 3 p c 3 3 ; , ; = ) = ",
"= } = = = ; < '   < < 3 L A 3 } } 3 _ 8 3 ; ; % ' ; = = = = = = } } , ' ' ; , ' ! d e 7 3 y ; ; = 3 c e d } ' , < ' ' = } = = ; ",
"- - | , ; ; = { ~ { 3 a s L q c 3 3 3 d ! ! b ; ; ; ; , ) ; ; ; = ; |   %   D % ; = ! t 3 3 3 3 3 ; ; < < l ] ^ ] ' ; = b = 1 : ",
"$ ^ ]   % , = { 1 ' ! c e e c A 3 : q L q : : 3 3 * ! 1 { } ! ! { 1 ; % E ; = 1 u b ! 3 p 3 3 3 c _ = ; % % , , , 1 } = ! _ _ : ",
"; $ 1 = |   $ ,   > E , ! ! ! 3 u ( d i i q q q : : _ _ _ 3 3 ; ; ; $ , = 3 _ v q p 3 { } p p v j e 3 ! = ( ! } } ! } } 1 * * 1 ",
"& | !._ C B ; ; $ $ - ^ E 1 1 ;   > E t d d d c 3 3 } , ' 3 3 y %   ' = 3 q 8 Z T _ ; l E < 1 ~.e 3 ! t } 1 1 } q q a t ; ; ; ; ",
"% ^ ] 1 _ : : f {.p 1 , ' = = = < ' ^ D 2 E ' u 3 ; %   ; ! f e : } = ! ! c 7 7 e p } E   % , } } 1 , ' E E $ = _ A : 1 $ % $ % ",
"^ ' ; ; $ % ' =.* : } = E % | ; } } ; , | , , } ! = ; = } ! : 8 d 3 ! } } ! } ! } ! 3 y } ; = } E l   % $ % ] | = ; $ % ^   ) ) ",
"' ; b ; ) % ]   ; * = ; ' , >   2 ' ; } = } } f O C f ! } ! { c p ! _ C e 1 < , ' E ' = ! 1 ! = < , ; = = < , $ = ; &   % $ # + ",
"1 ! = & # ) | $ ; # < % % = , ) , < ; u = 1 = 3 3 q _ } = 2 1 ' | ; t e K q 1 = ; ^ ] % % $ = = = = | ; ; ; ; ; & ; ; , ) & ( ~ "};
