/* XPM */
static char *a655fe3a277e47b48e7312307100720fk0csNcgAxAbNzxIq[] = {
/* columns rows colors chars-per-pixel */
"64 64 243 2 ",
"   c #1B0C09",
".  c #271712",
"X  c #34241C",
"o  c #382B27",
"O  c #3D312C",
"+  c #3F3430",
"@  c #58372B",
"#  c #453A34",
"$  c #4B3E3A",
"%  c #473934",
"&  c #583D32",
"*  c #4C3125",
"=  c #6B3B2B",
"-  c #64392A",
";  c #673D31",
":  c #40281C",
">  c #4D423D",
",  c #55433A",
"<  c #6A412E",
"1  c #6C4434",
"2  c #674839",
"3  c #734534",
"4  c #744C3B",
"5  c #7B4D3B",
"6  c #764A37",
"7  c #79523E",
"8  c #71432F",
"9  c #5B4B45",
"0  c #564945",
"q  c #5D524B",
"w  c #5C5558",
"e  c #52484F",
"r  c #624E46",
"t  c #6C4D42",
"y  c #734E42",
"u  c #63524B",
"i  c #6C554C",
"p  c #6B5348",
"a  c #745344",
"s  c #7C5443",
"d  c #755649",
"f  c #745A4D",
"g  c #7C5C4C",
"h  c #7D5847",
"j  c #675A57",
"k  c #725C53",
"l  c #7B5D52",
"z  c #785F59",
"x  c #6D625D",
"c  c #7D6254",
"v  c #75635C",
"b  c #7B665B",
"n  c #7A665B",
"m  c #7A604F",
"M  c #635D64",
"N  c #6B6569",
"B  c #7C6A63",
"V  c #766865",
"C  c #746D74",
"Z  c #797478",
"A  c #6F6E72",
"S  c #82533D",
"D  c #825543",
"F  c #835D4B",
"G  c #885C47",
"H  c #835F53",
"J  c #945E4A",
"K  c #85614C",
"L  c #8C624D",
"P  c #94654D",
"I  c #836454",
"U  c #8C6552",
"Y  c #8E6954",
"T  c #83655A",
"R  c #856B5B",
"E  c #8B6C5C",
"W  c #876858",
"Q  c #926652",
"!  c #946B54",
"~  c #9B6C55",
"^  c #936D5A",
"/  c #9A6E5A",
"(  c #986756",
")  c #8B715E",
"_  c #95715C",
"`  c #9B725D",
"'  c #9A7458",
"]  c #A2745C",
"[  c #A7765B",
"{  c #A67056",
"}  c #826C63",
"|  c #8B6D61",
" . c #846C67",
".. c #936E63",
"X. c #8C7363",
"o. c #85736C",
"O. c #8C756A",
"+. c #8A7669",
"@. c #937464",
"#. c #9B7563",
"$. c #9E7964",
"%. c #93756A",
"&. c #947B6B",
"*. c #9C7C6C",
"=. c #967768",
"-. c #8C7B73",
";. c #837B7D",
":. c #887975",
">. c #927D73",
",. c #987D73",
"<. c #A47A64",
"1. c #AB7C64",
"2. c #A37C6A",
"3. c #A77964",
"4. c #B47B66",
"5. c #A47F72",
"6. c #8B817B",
"7. c #958175",
"8. c #9B8274",
"9. c #93847C",
"0. c #9B8A7D",
"q. c #99867C",
"w. c #AC836D",
"e. c #A7826C",
"r. c #B3836B",
"t. c #B8856B",
"y. c #A48375",
"u. c #AB8573",
"i. c #A98979",
"p. c #B48672",
"a. c #B48B73",
"s. c #BB8B73",
"d. c #B68C79",
"f. c #BA927A",
"g. c #AC907F",
"h. c #C6896B",
"j. c #C38C74",
"k. c #C79479",
"l. c #D69A7C",
"z. c #D38F72",
"x. c #D8A17C",
"c. c #7C7B82",
"v. c #847E84",
"b. c #7D848A",
"n. c #898688",
"m. c #958A84",
"M. c #9C8C83",
"N. c #948D8C",
"B. c #978985",
"V. c #9D918A",
"C. c #9D9186",
"Z. c #8B8C92",
"A. c #958E92",
"S. c #8C9596",
"D. c #9C9494",
"F. c #979999",
"G. c #8A928F",
"H. c #A78D81",
"J. c #A3948C",
"K. c #A99587",
"L. c #B69887",
"P. c #A59A94",
"I. c #AA9992",
"U. c #A39C9C",
"Y. c #A69996",
"T. c #B89D94",
"R. c #B28E82",
"E. c #98A19F",
"W. c #ABA29B",
"Q. c #B8A49A",
"!. c #9A9CA4",
"~. c #9BA5A7",
"^. c #ACA4A3",
"/. c #A6A9A8",
"(. c #B4A9A5",
"). c #B3ACAA",
"_. c #B8AAA6",
"`. c #B7B2AD",
"'. c #A9AAB6",
"]. c #ACB5B3",
"[. c #B8B7B5",
"{. c #AEAFB1",
"}. c #A19DAB",
"|. c #C99A86",
" X c #D59B86",
".X c #C29E90",
"XX c #E49C85",
"oX c #DAA388",
"OX c #C9A797",
"+X c #DCA993",
"@X c #D1AC93",
"#X c #E6A789",
"$X c #E4AB96",
"%X c #EBB39B",
"&X c #E7B498",
"*X c #F3B194",
"=X c #C6B4AB",
"-X c #D9B8A6",
";X c #C7BBB6",
":X c #CCB7AF",
">X c #ECBAA2",
",X c #F5BCA8",
"<X c #F0BFB0",
"1X c #BEC2BC",
"2X c #C7C3BC",
"3X c #DBC7B5",
"4X c #F8C7A9",
"5X c #FECBB6",
"6X c #FCD7BB",
"7X c #E6CBB4",
"8X c #DBC19E",
"9X c #BAB7C7",
"0X c #BEBDD0",
"qX c #C6BACA",
"wX c #D7BBCB",
"eX c #C6BDD2",
"rX c #E4BDD0",
"tX c #B6C0C1",
"yX c #C9C5C7",
"uX c #D8C8C9",
"iX c #CCC3D4",
"pX c #C9C4D8",
"aX c #D3C5D3",
"sX c #D7C8D8",
"dX c #D9D3CE",
"fX c #E5C6CC",
"gX c #E9D3CA",
"hX c #F7D9C4",
"jX c #E7C6D5",
"kX c #E9D7D6",
"lX c #F2D6D9",
"zX c #FBE7CB",
"xX c #FAE9DC",
"cX c #FEF5D6",
"vX c #EFE2CF",
"bX c #D5CEE2",
"nX c #DAD5E8",
"mX c #D4D2EA",
"MX c #F7DBE8",
"NX c #E1DBEC",
"BX c #FAE9EB",
"VX c #FEFAE6",
"CX c #F5ECF3",
/* pixels */
"N C Z ;.;.v.n.n.D.U.^.^.).;XkX;X%.%.%.%.%...| | z | 5.OX<X5X,X>X,X5X5X5X5X4X,X5XhX6X5X5X6X6XhXzXcXVXcX7X+Xs.4.j.z. XH.:.;.Z M M ",
"M N C Z C Z ;.n.N.D.F.U.^.`.uX=X..| | T T H H T } %.R.OX-X%X$X%X$X$X$X%X>X$XoX X&X>X,X,X>X%X>X>X6XcXzX-Xr.[ 4.j.h.p.-.Z ;.Z N A ",
"j w M N C Z ;.m.N.N.D.U.W._.uXOX| T l l l l l T %.5.R..X|. X XoX Xk.k.oX+X+X Xk.%X%X$X X X XoXoX$X4X6X4Xj.4.j.4.p.i.B.v.Z N N N ",
"w e e N ;.v.n.n.N.D.D.U.^._.kX=XT f p d l T | %.y.y.u.d.k.|.k.k.k.s.s.|.oX$X+X X%X%X%XoXl.z.l.oX Xx.&X4X%X Xj.r.i.q.;.C A Z v.c.",
"e e w C n.n.n.m.N.D.D.U.^.=XlXQ.f t 2 d T X.%.&.*.*.*.2.w.p.s.t.s.r.t.k. X+X$X XoX%X4X4X$Xk.k.l.#Xl.k.l.*X#X Xl.i.-.Z n.n.Z Z A ",
"e w C n.N.n.N.D.V.U.U.^.).;XxXK.t 2 , d T | | X.| =.*.$.<.3.4.r.r.1.s.|. X+X$X X+X&X4X4X4X&XoXl.XX*Xl.h.l.#X#XoXi.>.Z.F.N.N w A ",
"w N v.A.A.N.D.U.Y.(.^.).=XuXBX>.2 & , a c I I E W @.#.$.2.w.r.r.w.1.r.k.k. X+X|.$X&X&X&X4X4X>XoXl.%X%Xl.z.XX#Xk.H.J.N.Z.n.C A Z.",
"j N ;.n.A.P.U.P.W.`.W.).;XfXxXc 2 & 2 a g g I E E E ^ $.p.k.f.p.d.<.1.4.4.s.k.r.j.+X%XoXoX%X*X#Xl.oX>X$Xh.z.l.h.K.Q.P.A.^.U.Z w ",
"w w Z N.D.U.F.^.^.).`.).;XgX-XF h h h F F F U ^ ` #.<.w.f.f.f.s.r.r.r.[ { r.p.3.~ 3.|.+Xj.k.oXoXh.t.oX&Xl.x.l.x.L.L.W.U.D.n.j x ",
"j j ;.A.D.U.U.^.(.).`.;XgXhX@X^ Y U U U U U Y _ ` $.<.w.s.s.s.s.r.1.{ ~ { 1.p.p.L ! s.k.1.1.s.k.[ [ h.oXk.oX#X&X-XOXQ.P.F.D.6.6.",
"M M n.D.F.^.^./.).).`.dXxXgX.X<.^ ^ Y Y Y _ $.e.w.w.p.s.s.s.s.s.s.4.[ P P J ~ 4.D F <.a.3.~ 3.w.3.{ [ j.t.oXoXoX@XOXOX_.).U.Z w ",
"j N N.U.U.^.^.).`.[.;XkXxX3Xd.<.^ Y U Y ^ #.e.a.s.s.s.r.r.w.r.r.3.1.[ { P G J 3.h h ` d.e.` / ' 1.~ { 1.1.k.j.j.+X@X-X=X).^.v.w ",
"w N A.^.^.).).).[.2XuXvXhXOX$./ Y Y U U ! ` e.w.f.s.s.r.3.] 3.3.3.4.3.] ! Q Q ( h h U e.e._ Y ! ' ! ! ] ] s.r.r.k.|.OX=XW.U.n.N ",
"e N D.(.^.).).`.[.yXgXgX-Xa.! U U U L U ! ` <.<.3.3.] / ! Q ! / <.^ ^ ^ ^ ..#.Q F h F _ $.^ U ^ ! ! ~ ' / w.<.1.3.|.-X7X;X`.U.A ",
"e V U.).^.).).`.1X2XuX3X.X#.Q U U U U U ! ^ ~ ! D D 7 7 7 D F L 7 - a T l c @.^ U U ^ ` ` U L ` _ #.` ^ K ^ U #.] f.OX-X:X`.^.N ",
"w C U.(.^.).).[.2X;X3X-Xd.! Q ! ^ ^ ! U L L G 7 s s s s F Q _ $.2 * i } , * 2 t Y ` $.<.` F G ! ` 2.#.U s F D ^ ` d.OX-X:X;X`.V ",
"q :.U.^.).`.).[.[.=X7X.X#.H ^ Y ! ^ ^ U s 6 6 6 ! / #.<.<.2.e.u.E , * O X o $ > & | H.R.i.#.Q ! ` p.<.F s g W =.^ ` u.L.-X:X`.A ",
"j m.^.^.).).).`.`.=X7XL.^ F Y L ! U F 7 6 7 K ! <.] #.<.2.u.d.f.f.I * X X u B r @ t | R.L.$.U <.3.<.^ F I g t t a h K _ Q.;X;XZ ",
"j m.^.^.(.(.(.;X[.uX7Xa.U D F K U F 7 6 s ! 2.a.w.<.^ ~ ` 2.e.w.s.d.y.c & 2 t 2 & @ a y.L.2.^ <.w.e._ g & .   X * & 2 a 8.=X;XZ ",
"j N.^._._.(.`.;XdXxXhX<.D 4 4 7 F s 7 s Y <.a.d.a.<._ ! ! ~ ~ ! ~ ~ 2.y.#.W h 4 2 1 y ^ u.w.3.<.<.e.*.g :     O X 2 g f &._.;X6.",
"x P.(._.Q.Q.;XdXxXVX6X' 7 3 1 4 6 6 7 K ` e.u.u.d.a.e.<.` ' ! L ~ S S Q #.2.2.2.D s 5 s Q 2.p.<.<.<.@.f * X X O & l @.R 7._.2Xn.",
"N Y.W.Q.=X=XkXVXVXVX7X' D s s F 7 s K Y $.e.w.w.a.d.f.d.a.1.] ~ ] ` Q D 5 D ! <.L 5 3 3 D ' w.w.<.#.E 7 * * & , f I E I i.=XyXN.",
"V U.Q.=X3XgXVXVXVXzX8X' L F F Y U Y ! _ ` $.2.e.u.d.f.f.f.a.1.] ' ] ! D D F G D L 5 3 8 6 Q 1.3.' ! Y s & 2 c R h a s g g.:XuXA.",
"Z (.=X3XvXvXVXVXVX7X@X! G F F I ^ _ _ _ ^ _ ` $.w.a.d.f.f.s.w.[ / ` ~ L F F K Y G D 5 < 3 Q 3.Q / L K h 1 1 y t 4 < 6 F R.:XuXF.",
" .:X3XzXcX7XcXcX6X4Xj./ Y U h s U Y ^ Q F F F Y ..*.u.f.L.L.d.w._ ' ! L G Q ~ Q G D 5 6 5 S L Q U U F U h 4 K g 4 K g E I.2X2XF.",
"O.3XzXcXzX-X4X4X4X&Xt.! U U h h D s s s 4 1 1 1 4 h U #.u.d.d.a.<.` ~ L L ~ ` / G G S 5 3 3 5 S D D s K F h _ $.^ L h =.Q.=X[.!.",
"T.hXzX6X>X XXX#X*XoX4.Q U U F h 5 3 1 1 4 1 < - @ @ - 1 h ! #.$.Y ! ! ! ~ <.3.` P Q P D 6 = = 8 5 s 7 D s h #.i.u.^ Y R.=X;X[.F.",
"7X5X4X&X#XXXXX*X#Xl.4.! Y Y I I #.^ Y ^ @.=.#.#.*.*.E m s a 7 7 F Y ` $.3.3.3.] ~ ] ] Q 5 = = 8 6 5 5 4 4 4 Y y.a.#.=.L._.;X;XN.",
",X%X&Xl. X$X#X#XXXl.r.^ ^ ..W W F F I U U I W @.E =.*.*.*.*.y.y.*.u.a.u.3.] ] ] ] 1.3.~ S = = = 1 6 5 6 3 4 F 5.u.*.8.I.Q.[.[.F.",
"$XoXl.j.j.oXoXoXl.k.w._ @.@.......#.5.i.y.y.i.R.y.i.g.i.y.i.H.L.L.L.d.2.^ ! ~ ] 1.r.w.] G 3 = - 3 5 D 6 3 1 y =.y.*.H.=X;X).^.F.",
" Xk.t.r.p.|.oXl.j.s.<.) X.@.@.@.E E E @.*.*.*.8.L.L.K.g.g.L.Q.Q.R.g.y.2.^ Q Q P ] ] 3.] P 5 = - 3 5 D 1 1 ; ; E &.i.W.2XyX`./.F.",
"|.f.1.r.s. XXXz.t.r.` W ) X.@.=.=.W g g I R R W c b X.&.i.L.L.L.g.g.d.d.w.` G 5 G P ! ~ Q D 3 - = 3 5 = ; ; @ U &.I.W.(.].]./.F.",
"s.p.w.2.|.|.|.j.[ ] ^ E | @.@._ E I g d g I W E ..=.*.y.g.H.H.H.K.g.y.e.<.] ` ~ G D D Q / P 6 - @ - 6 5 = - t T P.`.W.D.^.^.F.F.",
"k.p.3.3.|. Xk.t.[ ] ^ W E | E E @.) W I T W W I @.=.=.@.X.X.@.&.8.8.y.*._ Q P P Q G G Q ` ~ G 5 ; 3 6 3 = ; d O.uX2XD.6.n.n.n.Z.",
"p./ ^ <.k.t.t.h.3./ U F I T E X.X.X.X.@.@.=.| E W E =.&.@.X.X.X.@.&.=.@.Y L L F D 6 6 S G P G D s 1 = 3 6 4 T q.yX2XF.n.Z n.A.Z.",
"y.H.R.5.L.|.k.4.3.! h a d I X.&.| X.@.&.*.*.&.=.T W | @.&.&.&.=.=.@.X._ _ _ ! Q Q G G L ! ~ ! ! U 3 1 D h t  .Q./.[.{.A.Z Z n.Z ",
"Y.J.I.T.:X.Xd.4.] U s y d l | &.&.&.&.&.&.=.@.@.=.E c g c R ) X.@.@.X.) E ^ ^ _ ~ ~ ~ ! Q F F F K h F H f i 9.2X~.].]./.F.F.^.U.",
"CXBXBXMXgXQ.d.R.#.U h h g l b } 7.7.8.7.&.=.@.@.@.E c g g c I I R X.@.) I K I _ K K K F h 4 4 4 d H l d n M.).[./.~.~.yXnXdXdXyX",
"J.:X:Xq.q.R.L.e.2.^ F h g f c b >.7.0.0.8.&.@.X.R R W W R I c g T R ) R I g K I K g g F g g g H f T T R M.[.1X].{.~.Z.{.bXaX[.!.",
"L.,.R c y.d.f.s.u._ F h d f n } -.9.H.H.8.&.) R R E E R c g g c R I c T ) E I g d 4 2 2 t t a d b %.H.T._.[.[.]././.b.c./.[.F.A ",
"c f T c | i.OXi.y.@.h 4 4 g I T } &.q.0.0.7.-.X.R E E R c g I W R T I T E ) R T g a 2 2 2 2 f R O.-.W.[.[.].[.{.~.].Z.b.Z b.Z.c.",
"k f c l E i.OXy.*.@.F 4 1 d c T O.7.M.C.0.q.7.&.X.X.X.R I I R E R R R R X.X.R R R I m g f c R X. .-.W.[.].].]./.~.tXS.S.Z.Z.Z.A ",
"f i f f T *.Q.y.%.=.E a 1 2 f c >.0.J.J.M.q.9.9.&.&.O.X.X.X.X.X.+.+.+.+.+.+.O.O.&.&.O.X.X.O.O.O.n 6.W.[.]./.]./.E.[.F.~.F.S.Z.A ",
"i p d d c %.T.8.%.*.*.F 1 2 a c 7.M.J.J.C.M.M.M.q.7.7.>.-.>.7.>.9.9.q.9.9.7.6.7.7.9.7.-.-.-.o.n m 9.(.[.]./././.E.].G.F.F.S.G.A ",
"p p p i l | T.7.%.*.*.Y 4 2 y c >.M.J.J.J.V.V.M.M.0.q.q.q.0.0.0.B.C.V.C.m.m.m.m.9.m.9.-.o.o.n i v m.).].].~.~./.E.].G.F.S.G.n.N ",
"p i r i k b T.7.X.@.=...h 4 y I %.7.H.J.J.I.J.J.J.C.M.M.M.C.C.C.V.V.V.V.V.m.m.m.m.m.6.:.o.B k u n V.)././.~.~.~.F.].G.F.F.G.Z.A ",
"i i r p i m L.7.&.X.@.#.Y a y l | =.7.0.K.I.I.J.J.J.J.J.J.J.J.J.V.V.V.V.V.B.m.m.m.n.:.:.B v k k o.P.)./.~.~.~.~.F.].S.~.F.S.Z.Z ",
"i i 2 p p f I.7.y.@.@.2.@.h t g I E %.7.H.K.J.J.I.I.I.J.J.J.J.J.V.V.V.V.V.M.M.m.m.:.:.o.B k k c -.Y.).E.~.~.~.!./.tXS.!.S.Z.Z.Z ",
"k i i p r i >.Q.H.X.I #.$.U d d d I R X.7.M.J.I.I.I.I.I.J.J.J.J.V.J.V.V.B.N.B.m.B.-.-.o.v i k B n.S.~.~.S.S.!./.9X0X[.!./.'.~.b.",
"k i i i p i -.T.H.&.E ^ _ ^ I H h g d f } >.M.I.I.I.I.I.I.J.J.J.J.J.J.V.B.N.N.m.6.9.o.n b k k } ).[.qXyXqX9X9X9XsXsXeXqXqXiXiX9X",
"k i i i r p } q.J.0.&.E Y #.#.@.U h 2 2 d R >.H.I.I.I.I.I.J.J.J.V.V.M.m.m.m.B.m.-.9.B k n k } T.kXMXMXMXMXjXaXaXjXrXwXwXaXwXqXeX",
"k i i u r 9 i n m.M.7.X.E @.2.2.#.Y d 2 a c X.8.J.J.I.I.I.J.J.J.M.9.7.-.6.9.m.9.-.:.B n v k M.gXBXCXCXMXjXwXwXaXrXrXjXjXjXwXqX9X",
"i u u u r 9 9 r B :.9.7.%.| _ #.#.@.I g g c E 8.J.J.I.I.J.J.M.M.>.-.o.o.-.-.6.6.-. .o.o.k B _.kXNXBXMXlXrXwXaXsXwXwXjXsXsXaXeX0X",
"u u u u u 9 9 9 u v -.M.q.X.E E | | E R R T E 8.J.J.J.J.M.q.7.-.o. .B B o.-.-.-.-.B B v j Y.sXkXNXnXsXsXsXsXsXaXqXqXqXqX9X9X0X9X",
"u 9 , 0 9 9 9 9 , r v :.>.-.O.| | | T T R T R &.0.M.M.0.9.-.o.} b v k n  .o.o.-.o.v v V m.yXNXnXNXnXsXsXbXbXsXiXeXpXeXqX9X9X9X9X",
"9 , % $ , 0 0 0 & , 9 j B -.>.O.O.| b c b c b O.-.-.7.7.-.o. .B m i i k B  .o.o.} v B D.yXNXNXnXbXbXbXmXmXbXsXsXpXeXeXeXqXqXqXqX",
"u r 9 $ % # > > # $ > , 9 j B :.o. .B B n n n c B B  . .B B B B j u u v B v V C V ;.U.{.9X9XeXpXbXmXbXpXsXpXiXsXaXaXaXiXeXeXqXqX",
"k j q > # # # # # % # % $ 9 u k  .B B n v v n n v B o.-.-.o.B v V V B o.o.B V V Z ;.A.{.9XeX0X0X9XeXpXpXbXpXiXaXjXsXsXaXaXuXwXwX",
"j u 9 , $ > > > $ # O O # $ 9 q k v B B B B n B :.-.9.M.J.V.9.-.:.-.7.9.>.:.o.C n.m.A.A.Z.Z.!.!.9XiXpXpXpXaXaXsXjXjXjXjXjXfXfXfX",
"j u 9 > $ > > > # # O O O % 0 u 9 9 u u u r u u 0 9 u j x x j j x V B B  . .V j w j V Z Z n.}.9X9XpXpXeXpXaXaXjXjXjXjXjXjXfXfXfX",
"V j q 0 $ $ # O # + O o o o > u u r 9 $ $ $ $ $ O # > 0 0 q q q 9 q u u k V x j C Z ;.Z.F.!./.'.'.[.9X9XpXpXeXwXuXuXuXfXfXfXfXuX",
"N j w 0 0 0 > $ $ # # O o o > j i u 9 9 9 0 % O . X O $ > 0 0 0 q u u u v B V N M N N Z c.n.n.Z.!.'.'.9XeXpXeXeXaXaXaXaXaXuXuXuX",
"j w w q w j j q 0 0 > $ + % 0 z r 9 , 9 9 0 o .   . X o # > 0 9 q u u j k V V V N A A A A A c.n.Z.}.'.'.9X0XpXpXiXiXaXsXsXsXsXaX",
"N M j j j N j u j 0 0 $ $ $ q V } i , $ $ # o . . . . o # 0 u j u j k v v v B o.A N N N Z Z C A M v.!.'.9X0X0XpXpXaXsXsXsXsXsXsX"
};
