/* XPM */
static char * wall_xpm[] = {
"64 64 384 2",
"  	c #0A0814",
". 	c #0B0814",
"+ 	c #0B0815",
"@ 	c #0B0914",
"# 	c #0B0915",
"$ 	c #0C0915",
"% 	c #0A0813",
"& 	c #090812",
"* 	c #090813",
"= 	c #090712",
"- 	c #080712",
"; 	c #080711",
"> 	c #080812",
", 	c #130E15",
"' 	c #181017",
") 	c #321E1E",
"! 	c #3B2321",
"~ 	c #351F1F",
"{ 	c #331F1F",
"] 	c #2F1E1F",
"^ 	c #321F1F",
"/ 	c #311F20",
"( 	c #332020",
"_ 	c #2E1C1E",
": 	c #372423",
"< 	c #3D2825",
"[ 	c #361F1F",
"} 	c #372020",
"| 	c #362020",
"1 	c #35201F",
"2 	c #321D1E",
"3 	c #301D1E",
"4 	c #341E1E",
"5 	c #2F1D1E",
"6 	c #211519",
"7 	c #26181B",
"8 	c #2A1A1C",
"9 	c #2D1C1E",
"0 	c #28181C",
"a 	c #27171B",
"b 	c #110C15",
"c 	c #160E16",
"d 	c #28181B",
"e 	c #28191C",
"f 	c #27181B",
"g 	c #402C29",
"h 	c #412C2A",
"i 	c #36201F",
"j 	c #382120",
"k 	c #2B1A1D",
"l 	c #2B1A1C",
"m 	c #361F1E",
"n 	c #2A1A1B",
"o 	c #1F1417",
"p 	c #2F1D1F",
"q 	c #341F1F",
"r 	c #342020",
"s 	c #322020",
"t 	c #362221",
"u 	c #382423",
"v 	c #28191B",
"w 	c #1C1317",
"x 	c #150F16",
"y 	c #1B1218",
"z 	c #382321",
"A 	c #3A2423",
"B 	c #3D2927",
"C 	c #3D2826",
"D 	c #3B2725",
"E 	c #362322",
"F 	c #332120",
"G 	c #372322",
"H 	c #3F2927",
"I 	c #3E2927",
"J 	c #362120",
"K 	c #3B2221",
"L 	c #3A2321",
"M 	c #342120",
"N 	c #2E1D1E",
"O 	c #342121",
"P 	c #2C1B1D",
"Q 	c #2A191C",
"R 	c #140D16",
"S 	c #170F16",
"T 	c #29191C",
"U 	c #3B2827",
"V 	c #3B2726",
"W 	c #442E2B",
"X 	c #432E2A",
"Y 	c #392221",
"Z 	c #3E2623",
"` 	c #392322",
" .	c #352121",
"..	c #352222",
"+.	c #311E1F",
"@.	c #311D1E",
"#.	c #352120",
"$.	c #34201F",
"%.	c #321F1E",
"&.	c #26181A",
"*.	c #1D1418",
"=.	c #171016",
"-.	c #1C1319",
";.	c #372120",
">.	c #392321",
",.	c #3E2926",
"'.	c #48332F",
").	c #47322E",
"!.	c #3F2B29",
"~.	c #332021",
"{.	c #332121",
"].	c #2D1B1D",
"^.	c #422D2A",
"/.	c #432E2B",
"(.	c #382221",
"_.	c #3D2421",
":.	c #382523",
"<.	c #392523",
"[.	c #3A2523",
"}.	c #3B2625",
"|.	c #170F17",
"1.	c #291A1C",
"2.	c #402B29",
"3.	c #4A3430",
"4.	c #47312E",
"5.	c #45302C",
"6.	c #422C29",
"7.	c #392120",
"8.	c #3C2422",
"9.	c #422B27",
"0.	c #3F2926",
"a.	c #3F2A28",
"b.	c #342222",
"c.	c #321E1F",
"d.	c #321F20",
"e.	c #26191B",
"f.	c #1E1418",
"g.	c #181117",
"h.	c #1E1619",
"i.	c #442F2D",
"j.	c #46302D",
"k.	c #2D1C1D",
"l.	c #27181A",
"m.	c #231619",
"n.	c #231719",
"o.	c #25171A",
"p.	c #402C2A",
"q.	c #46312E",
"r.	c #322021",
"s.	c #27191B",
"t.	c #181018",
"u.	c #442F2C",
"v.	c #48322E",
"w.	c #392524",
"x.	c #3C2724",
"y.	c #3D2724",
"z.	c #3B2624",
"A.	c #2C1A1D",
"B.	c #301E1F",
"C.	c #241719",
"D.	c #221618",
"E.	c #221619",
"F.	c #201518",
"G.	c #422D2B",
"H.	c #3A2625",
"I.	c #221719",
"J.	c #412D2B",
"K.	c #25181A",
"L.	c #3B2523",
"M.	c #2D1B1E",
"N.	c #201619",
"O.	c #1F1518",
"P.	c #1C1318",
"Q.	c #362222",
"R.	c #3C2725",
"S.	c #3B2626",
"T.	c #211518",
"U.	c #1F1519",
"V.	c #23171A",
"W.	c #2B1B1D",
"X.	c #211618",
"Y.	c #130C16",
"Z.	c #191018",
"`.	c #311F1F",
" +	c #29181C",
".+	c #211619",
"++	c #120C16",
"@+	c #3A2624",
"#+	c #2E1C1D",
"$+	c #130D16",
"%+	c #180F17",
"&+	c #211517",
"*+	c #1E1318",
"=+	c #140D17",
"-+	c #130C17",
";+	c #26171A",
">+	c #160F17",
",+	c #1D1218",
"'+	c #191117",
")+	c #201419",
"!+	c #24171A",
"~+	c #1E1519",
"{+	c #1F1619",
"]+	c #311E1E",
"^+	c #1E1319",
"/+	c #191017",
"(+	c #191116",
"_+	c #2D1D1E",
":+	c #29191B",
"<+	c #25181B",
"[+	c #150E17",
"}+	c #1A1118",
"|+	c #241619",
"1+	c #1D1419",
"2+	c #22161A",
"3+	c #201618",
"4+	c #1D1318",
"5+	c #181016",
"6+	c #1D1519",
"7+	c #120C15",
"8+	c #38211F",
"9+	c #1C1419",
"0+	c #23161A",
"a+	c #29181B",
"b+	c #191016",
"c+	c #2A1A1D",
"d+	c #1C1218",
"e+	c #110B15",
"f+	c #160E18",
"g+	c #150E18",
"h+	c #26171B",
"i+	c #21151A",
"j+	c #1A1117",
"k+	c #100B16",
"l+	c #1A1218",
"m+	c #160E17",
"n+	c #110B16",
"o+	c #100B15",
"p+	c #191118",
"q+	c #221518",
"r+	c #171018",
"s+	c #130D17",
"t+	c #110B17",
"u+	c #1B1318",
"v+	c #201519",
"w+	c #1B1118",
"x+	c #21161A",
"y+	c #24161A",
"z+	c #180F18",
"A+	c #110C17",
"B+	c #1E1419",
"C+	c #25171B",
"D+	c #150E16",
"E+	c #170E18",
"F+	c #110C16",
"G+	c #1A1217",
"H+	c #120C17",
"I+	c #140E17",
"J+	c #150D16",
"K+	c #0F0A15",
"L+	c #150D17",
"M+	c #160F18",
"N+	c #140E16",
"O+	c #130D15",
"P+	c #24181A",
"Q+	c #150D18",
"R+	c #1F1419",
"S+	c #140E15",
"T+	c #27191C",
"U+	c #392625",
"V+	c #3E2B29",
"W+	c #3B2826",
"X+	c #352322",
"Y+	c #301F20",
"Z+	c #2E1E1F",
"`+	c #221519",
" @	c #2B1C1E",
".@	c #3C2927",
"+@	c #3D2A28",
"@@	c #372424",
"#@	c #362423",
"$@	c #1C1418",
"%@	c #0F0B15",
"&@	c #24161B",
"*@	c #2A1B1D",
"=@	c #26181C",
"-@	c #352423",
";@	c #3C2A28",
">@	c #3C2827",
",@	c #3B2927",
"'@	c #2C1C1E",
")@	c #312020",
"!@	c #3F2B28",
"~@	c #412D2A",
"{@	c #392624",
"]@	c #26191C",
"^@	c #1F161A",
"/@	c #1E1518",
"(@	c #372323",
"_@	c #22171A",
":@	c #281A1C",
"<@	c #432F2B",
"[@	c #412C29",
"}@	c #3E2A28",
"|@	c #2C1C1D",
"1@	c #181116",
"2@	c #402B28",
"3@	c #382524",
"4@	c #3F2A29",
"5@	c #352221",
"6@	c #1D1118",
"7@	c #3D2926",
"8@	c #46312D",
"9@	c #47312D",
"0@	c #3C2726",
"a@	c #3B2724",
"b@	c #0A0812",
"c@	c #1B1219",
"d@	c #45302D",
"e@	c #442F2B",
"f@	c #301D1F",
"g@	c #301F1F",
"h@	c #362323",
"i@	c #3C2826",
"j@	c #0B0813",
"k@	c #1A1116",
"l@	c #2B1C1D",
"m@	c #2D1D1F",
"n@	c #211419",
"o@	c #301D1D",
"p@	c #3B2320",
"q@	c #1A1018",
"r@	c #33201F",
"s@	c #170E17",
"t@	c #23151A",
"u@	c #1F1319",
"v@	c #100B17",
"w@	c #1B1217",
"x@	c #1D1319",
"y@	c #170F18",
"z@	c #2B191C",
"A@	c #1B1319",
"B@	c #140D15",
"C@	c #140D18",
"D@	c #0E0A14",
"E@	c #151017",
"F@	c #150F17",
"G@	c #0B0913",
"H@	c #0E0A15",
"I@	c #0C0A14",
"J@	c #0C0914",
"K@	c #0D0A14",
"L@	c #0F0B16",
"M@	c #0F0A14",
"N@	c #0D0A15",
"O@	c #0D0A13",
"P@	c #22151A",
"Q@	c #1F1418",
"R@	c #2E1D1F",
"S@	c #070711",
"T@	c #2F1F20",
"U@	c #372524",
"V@	c #171017",
"W@	c #332222",
"X@	c #3D2827",
"Y@	c #372422",
"Z@	c #2F1F1F",
"`@	c #382424",
" #	c #3E2928",
".#	c #3A2626",
"+#	c #2D1E1E",
"@#	c #342122",
"##	c #160F16",
"$#	c #1B1117",
"%#	c #2E1C1F",
"&#	c #1F1318",
"*#	c #251719",
"=#	c #1C1217",
"-#	c #24181B",
";#	c #181118",
">#	c #191218",
",#	c #27181C",
"'#	c #070811",
")#	c #100C15",
"  . + . . . @ # # $ $ . . . + @ .   % .   . . . . . .   . .     . + .   .   % % % % . . @ # @ .   % % . % %       % % % % .   % ",
"& * & = & = = & & & & & = & & = * - & & & & & & & & & & & % & & - & = = & - ; & - & & & & & & & & - - & & > & & = & = & & & * & ",
", ' ) ! ~ { ] ^ / ( _ : < [ } | 1 ~ 2 3 ) 4 5 6 7 8 9 0 a b c d 8 e f a 9 g h { i j 2 5 5 k 8 8 l 4 m n o p q { { r s t u v w & ",
"x y ^ ! z A B C D E F ( G ^ u H C I G J K L M N ] ^ O P Q R S T Q 5 s U V W X J Y Z `  ...O ] _ N +.@.8 v / #.t r $.%.^ r &.*.& ",
"=.-.5 ;.>.,.'.).!.~.{._ 5 ].E ^.^./.u (._.>.:.<.[.[.}.P Q R |.f 1.F 2.3.4.5.6.7.8.9.0.< a.2.E {.b.5 Q P 5 {.s 5 #.r ^ c.d.e.f.& ",
"g.h.f _ i.j.I : {.P P P ].k.5 _ N N _ k.l.m.n.o.p.q.r.s.7 R t.8 d.u.v.w.( O x.y.t _ E z. .r.] P P Q Q 5 ^ A.A.B.5 5 C.D.E.F.F.& ",
"6 8 ] ../.G.H.s B.P ].P P P P 9 k.P l e E.D.I.n.U J.8 7 K.R t.P <.^.C O 5 +.G L.O M.E G 9 d Q 8 Q d v _ 5 8 l 5 _ T E.N.O.*.P.& ",
"f 3 Q.R.S...P k.P P P ].k.P P P _ e T.U.V.k P l B.W.f C.X.Y.Z.p z.R.d.`._ P P P P A.5 k. + +l T 7 .+.+8 8 Q A.P k T l l y Y.++& ",
"o.5 u @+5 #+P P P P P P ].P P P P d D.E.l.8 k  +7 7 D.D.T.$+%+e F b.B.k.P P P P P P P k k k Q o.V.T.&+8 `.z.d.P P ].P k *+=+-+& ",
";+`.D [.N P k P k ].P P ].P P P P P P k l k Q f D.D.D.X.F.=+>+V.9 r.9 P P P P P P P P P P k T 7 f f f 8 _ d.`.`.P k.k l T ,+'+& ",
")+P O B.P P P P P P k P P P A.P P P P P k k f m.D.!+m.N.~+R >+{+n._ P P k k P l Q o.E.T.8 ].l k l k k k k P B.]+_ l l Q k ^+/+& ",
"(+.+_+p P P A.P P P ].P P P P P P P P P k k :+!+f f <+~+~+Y.[+~+6 P W.P k T 8 T f T.X.D.Q P l Q Q l l k P 9 5 B.N k k l Q *+}+; ",
"(+F.s.k.P P P P P P P ].k.P k.P v n.Q k l l P P l |+D.~+1+++|.2+!+P ].l ;+T.T.m.3+E.k P P k ]+j 1 k k k k l k Q P A.k Q k 4+}+- ",
"5+~+f P P Q 8 Q k P P P P Q 8 v Q f k k k l l k k f ;+1+6+7+/+T k P P k T N.X.E.o.e A.P P P ^ 8+q l k k k W.k k P k W.Q Q 4+/+> ",
"=.9+0+f f o.n.f k W.P A.k f ~+N.f Q k k k v o.d  +a+a -.Z.7+b+k Q 8 P k k &.X..+o.k k l k k P _ 9 P l k k k c+T k l  +7 K.d+/+& ",
"e+=+f+*.n.m.V.f k k P T 7 N.3+s.P P k k T .+3+!+.+9+y [+g+e+c f h+y T P k &.!+Q k k k k l P P k P k k k P l i+y f a+C.{+{+j+|.> ",
"k+f+Z.}+1+E.d T d  +Q V.U.T.X.8 ].P P k l m.X.E.F.4+l+m+g+++n+-+[+P.#+].P Q l k W.l Q l k k P P k P P Q h+U.P.j+o.K.X.F.{+=+n+> ",
"o+-+p+y 1+N.a+!+3+K.!+O.9+U.o.f f l ].T .+q+E.T.3+r+n+++s+o+n+t+m+y k.#+P k l 9 ].T !+E.I.v k P P P k e 7 1+u+j+v+T.~+h.{+=+n+- ",
"x j+t.[+|.t.w+4+f.U.x+{+6+1+y+V.2+0+y+)+}+}+y y y z+[+A+t+n+k+n+[+y B+V.!+C+7 k.8 !+h.~+U.2+!+C+y+!+0+v+U.P.P.y *.4+P.u+}+-+n+> ",
"D+j+m+++t+n+++|.j+y u+u+j+j+9+u+j+/+/+[+=+=+-+[+z+E+=+F+++++n+n+-+j+j+G+y -.{+7 U.1+6+6+9+6+6+9+y j+j+'+j+j+j+j+j+j+'+j+f+H+H+& ",
"o+++-+++H+++++++$+I+>+[+I+[+[+=+$+-+Y.Y.Y.-+-+=+s+-+H+++t+H+t+t+-+j+'+j+y y P.B+y y y y y u+u+y }+'+>+[+=+s+Y.++R $+J+=+s+Y.n+& ",
"K+++L+=+-+Y.$+R ++k+H+A+++++H+Y.n+o+e+n+-+=+M+g+=+=+s+s+s+-+H+n+k+Y.-+++N+=+=+R m+|.|.>+|.>+|.>+[+m+Y.n+++R ++k+k+n+++F+n+n+n+& ",
"O+j+9+y 7 Q l k e X.F.O.I.f n.9+}+d+d+m+y+e 7 f P+7 <+f 7 d+z+Q+n+n+k+n+n+++++e+7+n+n+n+n+++n+n+++n+n+m+R+B.7 P.T T d ;+!+.+/+> ",
"S+y 7 T+O U+V+B W+X+X+Y+Z+Q x+P.j+`+7  @.@+@U+@@b.#@#@{.{.V.$@Z.|.p+l+%@D+f &@C+7 f f e c+*@=@0+G+^+_+-@;@!.>@,@W+H.W+>@: 1.f.& ",
"D+y '@)@@+!@5.2.B <.u X+r.k v+P.6 f P X+~@G.a.V H.w.{@b.b.]@^@4+d+6+/@n+Z.+._ 5 `.{.X+: (@..5 '@_@:@u B ^.<@[@g C R.I }@..|@U.& ",
"1@{+: X 2@!@2.B.].P P _ 5 k U.v+B.{.3@4@<.5@P P P P k P k.9 P f <+~+-.n+6@O ( t 7@8@9@/.2@b.s 5 k.B.0@a@u b.b._ P P k.5 ( e !+b@",
"5+D.:.a.u ~.s k P k.k.P d !+X.E.~.w.}@D P ].P P P P P ].P 9 P P T h.c@++,+E u d@5.e@B ..s p f@N #+9 B.5 5 _ _ k.P k.k.N ].n.O.& ",
"(+v }@w.B.P k k k 9 9 f E.N.N.D.7 g@h@/ k P P P P P ~.E s ].k k W.h.*.n+d+O E i@3@h@O +.s ..s _ k.].]._ ].P ].P k.9 P ].k .+6+j@",
"k@8 B X+P P k P P k P T X.T.X.E._@l@/ k k P P P P 9 s b.B.P k P k N.f.n+/+m@] ../ / +.`.s s ] k.P P P P P P ].9 P P P 9 k.x+6+% ",
",+l 9 k.P P k k 1.7 h+K.T.n.E.T.}+R+K.l P k P P P P k 8 l k k k c+N./@e+R {+2+k 9 k._ ].N P l l k k k P P ].].].P P P #+B.)+l+% ",
"n@P l ].P P P Q x+1+N.v 8 k.o@q Z.v+f k P P P P P k l l l k k k l {+f.n+R 6+v+!+e P P ].].7 E.m.l k P P P ].P k k l &.o.:+,+/+& ",
"y+k.l P P P T .+.+~+{+8 N ^ | p@q@^+T k P k P P P P P l k k P c+f y %+n+N+6+~+m.7 T P B._ f !+f Q T l W.P P P P 8 Q E..+D.P.j+& ",
"n@P P ].k e C.X.X.T.I.P P P 5 r@s@)+k P P P k k k P k k k l k 0+9+s+=+n+R ~+2+a+;+X.f _ ].].9 k 8 O.3+e P P P k Q d Q E.D.P.G+> ",
"!+9 ] 9 k C.T.D.!+W.P P P P l v =+)+l l P P P k l k Q Q k k k T d =+=+F+$+h.T+A.P 8 W.9 _ / 5@p T 7 n.T P ].Q  +n.E.Q f D.*.u+& ",
"t@P B.B.7 m.o.k k P P P P P f o.$+)+Q k P P P f 7 f T l l 8 k Q T =+=+n+$+h.P+k ].P ]._ p b.<.B.l Q T l P Q Q a+!+o.l T m.f.y & ",
"k@E.] b.P+7 P k.P k P P l A.!+I.++i+Q k P k T E..+D.T k k l Q 7 .+-+-+t+N+~+x+k P P ].5 / ~.b.B.P l P P k P k.k.l A.P :+o.~+u+& ",
"j+E.|@W.K.W.P P P P P P P P B+P.++u@ +Q Q Q e X.E.V. +l k l Q o.F.=+Y.v@N+h.U.f W.9 T 8 5 B.N P P k P k k P P P #+k.k Q 7 B+l+& ",
"w@X.F B.W._ P P P P P e <+2+1+/+F+4+T Q a+m.T.X.o.<+Q l k k T v+x@f+=+++[+6+{+X.&.1.X.m.7 :+Q P k P P P P Q l P P k l l k B+'+> ",
"S f.g@( +.k.P ].k P P N.O.N.Z.f+o+p+N..+.+!+o.C.d T 8 k P C.~+P.}+f+L+H+=+9+~+T.m.E.N.E.C.&.T k P Q 7 ;+f 8 P P P k h+v Q 4+}+& ",
"D+j+E.T `._ T v f s.&.O.3+U.y@L+F+g.6+6+N.!+T T Q Q Q f ;+N.6+P.p+f+L+H+s+u+f.X.B+6+1+~+7 d Q Q z@V.1+6+~+8 ].9 k Q n.7  +4+/+> ",
"x j+N.T f .+{+O.{+O.T.D.O.1+=+s+H+|.j+P..+m.!+f  +f o.X.{+6+1+j+|.-+H+A+++y y -.1+{+U.1+~+~+U.v+v+w@u+-.6+B+v+`+u@6 K..+1+y /+= ",
"N+j+O.v 2+~+6+~+~+f.f.3+P.l+H+++H+m+'+j+w@1+y .+y+v+F.~+1+9+u+' m+k+n+n+++' p+p+u+{+B+A@A@-.A@A@u+/+y u+A@y y }+j+y v+*.-.}+%+& ",
"B@j+$@6+9+P.y y y P.9+l+-+k+k+n+n+R /+/+j+/+j+/+' '+j+y j+j+l+H+A+n+n+n+++t+H+-+|./+E+L+Q+C@Q+=+f+f+g+=+s+=+' ' /+j+'+' y@=+++& ",
"D@$+N+x N+I+E@I+N+E@F@$+o+o+%@k+e+F+$+$+$+$+s+B@R $+$+$+R N+D+++++n+n+F+n+s+$+++=+D+J+s+=+R $+R $+R Y.$+-+Y.R R R N+N+D+R ++n+; ",
"G@H@I@J@J@K@I@K@K@I@J@K@K@K@K+D@H@H@K@L@o+e+n+%@e+H@H@o+o+%@M@e+k+k+K@N@e+y@f+e+o+k+o+n+n+n+n+e+n+e+n+n+n+k+n+D@D@O@K@D@%@e+k+; ",
"O+/+P@|@N k.l T e T P `.N 5 v+y V.!+0+o+e+n+n+e+o+o+++++-+!+C+C+h+d 8 h+0 ;+o.h+f f h+Q@j+++=+y@*..+6 o.C+j+%+f R@g@B.8 !+m+=+S@",
"N+}+T@U@E 5@+.s ~.k P ( 5 3 v !+8 f &./+j+j+j+b+V@I+n+|.l+T k ] B.B.+._+g@X+b.X+W@)@W.7 i+/+m+%+f.!+7 !+E.E.2+T O ~.5 e o.}+y@> ",
"x j+.@^.~@B E <.@+ +T W.P P P P k.P k o.C.7 T 7 n.,+++' P.k.^ i@a.@+u E <.!@[@!.X@X@_ T e.E.y@Z./@V.K.6 w@!+8 P N _ W.<+f B+/+> ",
"S+j+@@D p 9 P N 9 T v Q.Y@{.{.O O {./ 9 #+].k k E.P.e+Z@b.U+u..@`@p 9 l N z.3@B.N 9 P P ].P f _@P./+Z.}+v+3@B g N 9 P m.U.n.2+& ",
"S+P.b...M.k P 9 P k k u <.5@{.b.O {./ P _ k.k l X.P.o+Y+E V u.V s P P P {.<./ P ].k P 9 p _ 8 o.}+Q+[+' i+g /. #5 9 P n.F.V.!+& ",
"=.E..#/ P P P k.P k._ P A.l P P l k k k P P k k D.y k++#X+h@V @#9 P P k 8 p 9 k P l Q o.W.P ].8 m.E+Q+*@{.B i@..9 P 8 D.F.U.-.& ",
"##~+Y+N ].P P 9 k.].].P k P P P P k P P l k k k X.$#n+<+'@b.h@_ P P P W.W.P k.k.P 9 s.I.1.P P P T m+-+ @d.H.(@B.N k.8 C.T.~+1+% ",
"S+y '@%#P P P ].P ].P k P P ].P l l P k e f Q T T.l+7+&#f {.r.P P P P P ].P 9 _ N M 5 P P P l k k L+++'@/ {.B._ `.( +.8 n.{+*.- ",
"S+j+m@/ 9 P P P e o.C.e l P T k k l k 8 n.D.C.!+{+g.n+4+X.Y+/ P 8 ].].P ].].P 9 9 l@v s.l P P P k.E+A+8 9 ..B.k.3 B.].P n.U.9+> ",
"S+j+C+Q P P P T f *#;+T k P o.v k 8 Q D..+T.D.T.~+t.n+=#T.7 P A.P P ].k P ].P k.k Q &.h+ +Q k 5 ^ %+-+e P k.+.J ^ +.k 5 ^ -#1+& ",
"N+j+U.2+8 c+E.X.D.8 8 Q T &.E.n.o.<+!+3+n.K.E.X.-.' n+y {+.+e k k P k o.!+!+T 9 k Q l A.P P P :+7 =+Y.T k.`@{@J P l 8 A.5 U.l+& ",
"S+y O.X.<+<+F.E.C.8 8 Q f n.X..+E.D.D.N.I.f m.3+u+t.n+p+h.K.7 k _ !+m.E.E.f T s.Q P k 8 8 8 8 v N.s+++e 5 B i@/ 8 Q Q d o.w@/+= ",
"S+j+V.<+D.{+6+K.T k Q V.N.3+~+h.{+F.&..+{+B+d+P.j+;#++>#~+9 R@{.~.!+m.n.K.r.W.n.&.k l o.T.m.n..+O.s+n+,#5 b.p k.B.P Q o.X.Z.' > ",
"S+j+P@7 f d o.a+f <+n.|+!+3+{+{+N.7  +s.V.Z.f+/+j+|.n+l+~+P %#/ p k l k c+P v &.X.d d !+3+I.F.~+9+H+n+*+o.9 P Q l 8 f V.1+t.%+> ",
"O+/+%+j+d  + +d o.3+f.f 7 ~+~+N.f Q  +f K.q@f+/+/+|.F+g.j+_ k l k k P k W.E.!+7 E.m.F.U.U.{+h.1+-.++++' y N.7  +T Q o..+y y@=+; ",
"O+/+f+f+V.!+C.I.N.E.3+*.6+6+x+T  +d V.^+y j+l+l+j+m+A+l+j+v+E.V.e Q f V.E.F.~+~+~+~+1+6+1+U.y@y@z+Y.++|.u+~+P+V.B+x@~+Z.m+=+H+'#",
"O+%+f+C@p+R+F.O.*.Q@O.P.-.9+v+h+h+0+t.Q+y@/+y }+/+=+++t.' y y f.0+o./@9+1+B+9+~+1+9+9+P.-.-.f+f+y@Y.++m+u+A@f.*.l+}+}+=+=+-+n+- ",
"O+%+[+++-+|.'+j+/+/+/+/+/+'+/+' ' y@g+=+g+g+g+=+++-+H+H+n+%+j+/+' ' %+' /+' ' %+/+z+' ' /+' y@f+f+Y.n+[+y@f+f+f+f+f+f+=+=+++e+> ",
")#[+$+F+L+m+c m+m+S c >+m+##>+##c D+R [+=+=+R $+++e+n+F+n+>+5+>+>+##c |.S |.|.>+>+c c c |.>+[+L+D+F+o+R m+[+L+=+[+[+L+R ++e+K+> "};
