/* XPM */
static char *ee6b72c13411435ca56a2eabda874f67G2xyy8ljAhZWHLXf[] = {
/* columns rows colors chars-per-pixel */
"64 64 231 2 ",
"   c #551E0C",
".  c #581F0B",
"X  c #5B2206",
"o  c #56210E",
"O  c #5B230C",
"+  c #5E2410",
"@  c #652B0D",
"#  c #692B0D",
"$  c #60260E",
"%  c #6B330F",
"&  c #67310D",
"*  c #75330B",
"=  c #7B380D",
"-  c #642B13",
";  c #6B2E12",
":  c #652816",
">  c #6C3214",
",  c #6F3619",
"<  c #6E391A",
"1  c #6A3314",
"2  c #733514",
"3  c #793715",
"4  c #753A14",
"5  c #7B3B14",
"6  c #723619",
"7  c #733A1B",
"8  c #7B3D1B",
"9  c #653B29",
"0  c #733D22",
"q  c #7E3E21",
"w  c #7C4216",
"e  c #7B431C",
"r  c #774113",
"t  c #754124",
"y  c #7D4422",
"u  c #7F4923",
"i  c #73432C",
"p  c #7C442A",
"a  c #7E4A2A",
"s  c #6C443A",
"d  c #774931",
"f  c #734D42",
"g  c #7D5A43",
"h  c #795244",
"j  c #833E16",
"k  c #813F1B",
"l  c #893C16",
"z  c #834216",
"x  c #8D4111",
"c  c #84441B",
"v  c #8A451C",
"b  c #85491D",
"n  c #8C4A1D",
"m  c #8C4D16",
"M  c #90471E",
"N  c #934B1D",
"B  c #914815",
"V  c #8D501E",
"C  c #94521C",
"Z  c #9A561D",
"A  c #834524",
"S  c #844B25",
"D  c #8C4C23",
"F  c #854C2A",
"G  c #8C4D2B",
"H  c #864726",
"J  c #924D22",
"K  c #914E29",
"L  c #8D5225",
"P  c #87522B",
"I  c #8C532C",
"U  c #8D592B",
"Y  c #885324",
"T  c #945324",
"R  c #995424",
"E  c #965826",
"W  c #9C5A24",
"Q  c #93542B",
"!  c #9A552A",
"~  c #955A2B",
"^  c #9C5B2B",
"/  c #854D31",
"(  c #8B4E30",
")  c #845233",
"_  c #8B5532",
"`  c #8D5B34",
"'  c #84543B",
"]  c #8B563B",
"[  c #8C5C3D",
"{  c #87593F",
"}  c #935531",
"|  c #945B34",
" . c #9B5D33",
".. c #935D3C",
"X. c #9A5D3A",
"o. c #A15D25",
"O. c #A15E2B",
"+. c #A25F35",
"@. c #9E612C",
"#. c #9F6226",
"$. c #8F613A",
"%. c #946234",
"&. c #9C6233",
"*. c #95633C",
"=. c #9B643C",
"-. c #9D683D",
";. c #9E6933",
":. c #A36225",
">. c #A4632C",
",. c #AA662C",
"<. c #A6692D",
"1. c #AB6B2C",
"2. c #AA6727",
"3. c #B56B2E",
"4. c #B86E2F",
"5. c #A46533",
"6. c #A96631",
"7. c #A56935",
"8. c #AB6B35",
"9. c #A3653A",
"0. c #A56A3C",
"q. c #AB6D3B",
"w. c #B36C33",
"e. c #B86E31",
"r. c #B26E3A",
"t. c #B86F38",
"y. c #AD723C",
"u. c #AD7037",
"i. c #B37134",
"p. c #BB7135",
"a. c #B4733C",
"s. c #B9743C",
"d. c #B5793C",
"f. c #BB7D3F",
"g. c #8C5D43",
"h. c #855741",
"j. c #965E43",
"k. c #8D6344",
"l. c #8E6844",
"z. c #946543",
"x. c #9C6642",
"c. c #936843",
"v. c #9D6B44",
"b. c #94654B",
"n. c #95684C",
"m. c #9E6B4B",
"M. c #9F714F",
"N. c #8D6955",
"B. c #966C55",
"V. c #A16641",
"C. c #A36B44",
"Z. c #AA6E42",
"A. c #A16D4B",
"S. c #A96F4A",
"D. c #A67245",
"F. c #AC7344",
"G. c #A4724B",
"H. c #AB744B",
"J. c #AD794B",
"K. c #AE7843",
"L. c #B37443",
"P. c #B97642",
"I. c #B47943",
"U. c #BB7B44",
"Y. c #B2754A",
"T. c #B47B4C",
"R. c #BA7D4B",
"E. c #B8774D",
"W. c #A27352",
"Q. c #AB7754",
"!. c #AD7B53",
"~. c #A3775C",
"^. c #AD795A",
"/. c #A97757",
"(. c #B07651",
"). c #B27C53",
"_. c #BA7E53",
"`. c #B37E5A",
"'. c #C17D46",
"]. c #BE8046",
"[. c #B7834C",
"{. c #BC824C",
"}. c #B68254",
"|. c #BC8354",
" X c #BC8A54",
".X c #B5835B",
"XX c #BB865B",
"oX c #BE8A5C",
"OX c #BF9354",
"+X c #B68662",
"@X c #B88563",
"#X c #B58966",
"$X c #B98961",
"%X c #BA8965",
"&X c #BD8D65",
"*X c #BD8B63",
"=X c #BC8D6A",
"-X c #BE9265",
";X c #BE926C",
":X c #C38145",
">X c #C3854B",
",X c #C8864A",
"<X c #C3894D",
"1X c #CB8A4D",
"2X c #C88447",
"3X c #C28553",
"4X c #C48C54",
"5X c #CA8D52",
"6X c #C1865B",
"7X c #C18C5C",
"8X c #C88C59",
"9X c #CC9055",
"0X c #C4915C",
"qX c #CA935C",
"wX c #CB9E5D",
"eX c #CCA05F",
"rX c #C28D63",
"tX c #C38E69",
"yX c #C49364",
"uX c #C99563",
"iX c #CD9965",
"pX c #C49369",
"aX c #CC9B6A",
"sX c #CA956A",
"dX c #D09460",
"fX c #D19E6A",
"gX c #D19D66",
"hX c #C79A74",
"jX c #CEA364",
"kX c #D3A96A",
"lX c #D1A468",
/* pixels */
"*.F $..X^.[ *.' _ ..Q.Q.$Xv.` .X.X$X&XQ.G.Q./.pX.X%XA.z.M.#X.X.X+X$X+XpX=XhX$X.X).)..X#XhX;X=X+X~.~.%Xg N.#X#X;XW.h k.l.n.^.k.k.",
"*.) ` }./.` *.' ) ..G.H.$Xv.` .X.X$X&XQ.Q.!.!.=XXX%Xm.z.W.=X+X+X.X$X+XpX=XaX+X.X.X)..X+XhXpX&X.X~.~.%Xg N.#X+X;XW.h g.l.n.^.k.k.",
"v.) ` }./.` *.) ) *.G.H.&XC.` .X.X$X&X!.!..X!.$XXXXXm.z.W.=X$X%X.X*X#XpX=XaX.X.X.X)..X+XhXpX%X!.~.~.=Xg N.+X#X;XW.f g.l.n.^.k.g.",
"v.F %.oX).` *.) _ *.H.Q.pXG.` /..X*X&X!.!..X!..X|.XXv.z.W.=X$X%X.X*X%XsX%XaX.X.X`.)..X.XhXpX$XQ.~.~.%Xg N.@X#XpXW.f h.l.n.^.k.[ ",
"v.a | oX`.` *.) P *.H.!.pXG.` Q..X*XpX!.!.XX!.).}..Xx.z.G.&XXX$XXXpX%XsX%XaX.X}.).!.)..XpXpX$X!././.tXg N.@X=XpXW.s { l.n.^.k.[ ",
"v.a | oX!.` *.) P *.H.).tXC.| G.!.*XpX!.!.XX!.!.T.XXx.z.G.$XXX$X$XpX%XyX$XaX.X}.).J.).XXpXpX$X.X/./.tXg N.@X%XpXW.s ' l.n.^.k.[ ",
"v.F | oX!._ =.) I *.H.).$Xx.` A.!.*XpX).).$X!.J.J..XC.z.A.$X.X$XXXyX$XsX%XaX.X_.).H.).oXpXpX$X.X/./.tXh.N.`.#XpXW.s ' c.b.Q.k...",
"C.F %.7X!._ -._ _ *.H.)..X*.` x.J.*XpX).).tX).H.F.}.C.z.m.XXXXoXXXyX$XsX%XaXXX_.).G.J.$XyXpXXX)././.pXg N.`.#XpXM.s ' c.b.Q.k...",
"D.a *. X)._ ..` U ..A..XT.| ..x.J.rXyX).).rX!.G.S.oX-.j.x.}.XXXX.XsX&X0XtXaXXX_.Y.D.J._.pX&XXX.XQ.!.oX{ B.*.c.tXW.9 ' z.c.).g...",
"D.a *. X)._ | ` U a / C.T.*...x.H.rXyX).).*X!.!.(.7XV.j.C.}.XXoXXXaXtX0XtXaXXXT.Y.F.J._.pX-X|.!.Q./.oX{ B.-.c.tXW.9 ' z.z.).g...",
"D.p *. X).I ` _ I 0 t C.|.=.` x.G.rXyX).).oX!.XX).7X-.j.C.}.XXoXXXaXtX0X$XaXXXT.Y.F.J._.pX-X_.!.!./.XX{ B.x.c.$XW.9 ) c.*.Q.k.*.",
"D.p =.4X).I _ _ _ 0 p Q.rX=._ C.D.rXyX).}.oXJ.*X).|.=...C.}.XXoXoXaXpX7X$XaXXXT.Y.Z.J._.sXpX_.}.).W.}.' n.x.v.7XW.9 ' z.*.Q.k.| ",
"F.a =.0X`.I ` _ | 0 i G.rX=.| C.D.rXyX).}.7XH.rX_.{.-.] C.}.XX7XoXaXtX7X$XiXXXY.F.Z.J._.sXpX_.}.).G.}.{ b.x.v.oXW.9 ] c.*.J.g.| ",
"F.S =.7X).I _ I } 0 0 G.rXx._ C.D.7XsX).}.7XH.rX_.{.=.] C.}.XX7XXXaXrX7XoXiX|.Y.Z.0.J.).pXpXR.}.).G.}.{ b.x.v.oXG.i [ c.*.(.g.%.",
"y.S =.4X).G } I U 0 p H.yX=.I x.D.oXsX).).7XJ.yX_.{.=./ x.XXoX7XoXiXrX7X$XiX|.L.Z.0.J.T.sXyXE.}.).G.}.{ g.x.v.XXC.i ..*.*.(.[ %.",
"K.F 0.7X).I } I } 7 t H.yX=.I x.D.oXsX).T.7XJ.sX_.{.=./ x.XXrXrXoXiXrX7XrXuX_.L.L.Z.J.Y.uXsXY.}.T.D._.{ h.*.v.oXV.d ..$.*.(.[ *.",
"Z.L =.0X}.F I P | t 0 H.yX=.Q -.V.oXuXT.|.oXJ.yX_.{.&.p =.|.7XuX7XqXrX0XXXqX_.L.Z.y.G.T.sX-XP._.D.Z.}._ ' z.m.|.x.) | *.$.H.` ..",
"0.D X.7XT.F P S } t 7 S.yX&.G -.V.oXuXT.|.7XJ.0X).{.=.F x.oXXX7X7XqXrX0XoXuX_.a.Z.q.H.Y.aX-XP.R.J.Z.}._ ' z.x.|.x.) X.*.*.G.` X.",
"Z.L =.qX}._ U I Q 0 7 S.yX&.G -.0.oXuXT._.6XJ.0X|.<X=.p ..oX|.0X7X9XrX0XoXqXR.y.0.q.J.Y.aX-XP.T.T.Z.}._ ) [ x.|.x.) X.*.$.G.` X.",
"Z.D V.0X[./ U G Q 0 7 Z.yX .G -.=.XXuXK.T.XXJ.yX|.<X=.p ..rX|.0X7XqX7X8XXXqXR.q.0.q.J.L.fX-XP.T.H.S.XX..g.*.A.T.x.) X.*.` G.` X.",
"C.b 9.0XT.p G S I < < Z.0X .G -.&.|.uXK.Y.|.T.sXT.I.| 0 _ XX|.0X7X9X6X4X|.qXR.q.0.q.H.L.lXyXP.T.Y.G.XX..) ..A.R.x._ X.*.` G.` X.",
"Z.c V.qXT.y S G I < 6 Z.7X| G *.| |.uXK.Y.|.J.yXY.u.&.( =.}.|.qX7X8X6X3X|.qXE.8.0.y.H.L.fXyXs.T.Y.H.{.} F | C.T.x.I  .| ` G.`  .",
"C.5 V.qXT.7 y F Q < 6 H.oX~ G | | |.0XF.Y.|.K.7XY.7.F.(.|.T.R.7X|.8X|.3X|.9XT.8.q.q.Z.L.fXyXt.I.K.F.3XS...x.C.I.=.I X.X.` Z.U X.",
"V.4 V.iXR.6 8 F Q < 7 J.oX~ G |  .|.0Xy.K.|.K.oXY.@.0.H.R.5.F.7X|.4X|.{.|.9XI.6.9.q.Z.L.fXyXw.L.I.Z.R.H.*.V.C.I.=.I X.*.` C.U | ",
"Z.z %.qXT.0 q H U 7 > T.7XQ G X.| |.8XF.H.{.F.|.Z.>.0.Y.T.&.Z.<X{.{.6X{.R.5XI.5.9.s.Z.a.gX7Xw.L.F.F.{.T.=.Z.0.U.-.D X.%._ 9.G | ",
"Z.c -.qXR.t 8 y U 6 > J.3XL S } | {.8XF.F.F.5.T.Z.@.0.{._.&.Z.3XR.{.XX{.T.5XI.>.5.a.0.r.iXoX8.L.F.y.R.T.=.G.0.I.-.D X.%._ 9.I ` ",
"C.w -.9XT.p 8 p I 6 > J.3XL H } | R.8XF.Z.0.@.T.L.@.0.|._.&.Z.<XU.{.|.{.T.5XP.O.5.a.0.a.iXoXw.L.F.q.R.T.=.H.0.I.x.D } %.` 0.I P ",
"V.5 -.8XI.p 8 F L 6 , T.3XT D } | {.8XF.Z.7.&.T.Z.>.F.|._.5.Y.<XU.{.|.{.T.5XP.O.5.a.0.a.iXoXt.P.L.q.R.T.=.J.Z.I.x.A } %.` 9.I Y ",
"C.5 =.8XI.p 8 F D 6 , Y.3XL D | | |.8XZ.Z.0.;.H.F.>.L.3X_.5.H.{.I.R.|.U.Y.5XP.W O.8.9.r.qX Xt.L.L.q.R.T.=.G.q.P.*.A I %._ 5.I S ",
"0.5 =.8XI.p c I D 6 > H.3XL D | } |.8X0.Z.0.9.H.Z.>.Z.4X_.E 9.R.a.U._.I.I.5XL.W ^ 8.9.r.qX}.t.L.L.8.U.L. .F.q.d.*.c ( %.I &.Q Y ",
"9.z -.4XL.y D I L 6 1 K.3XQ D Q I {.9X0.Z.;.5.H.0.#.Z.3X_.E X.U.a.U._.I.I.5Xs.R ! 8.5.r.qX}.s.a.L.8.U.I. .F.q.a.X.c G %._ &.Q S ",
"Z.V 0.4Xy.y G G I 6 1 K.4X^ D Q Q 3XqXq.0.~ ^ Z.9.<.L.3X_.^ 9.U.a.U._.I.I.5XP.R R 8.5.r.9X}.s.a.L.8.U.I.&.H.q.q.X.8 G %.I &.} S ",
"9.c &.<XF.t D G D 6 1 Y.5X~ I } Q 3XdXq.0.Q Q 0.9.>.L.<XT.^ +.f.P.OXE.U.R.1XL.R ! i.7.r.qX Xe.P.s.8.L.q.5.y.q.q. .y A ~ _ ^ P t ",
"~ 5 | >X0.7 D G L 6 1 Y.4XL A _ ~ 3XdX0.0.I Q 9.9.>.L.<XI.E X.d.P.jX3Xs.P.5XP.R ! i.8.r.qX Xe.s.r.8.P.q.5.L.q.q. .e A ~ F ^ S 1 ",
"~ 5 | >X0.< b G I > - Y.5XV c } ~ 3XdX0.9.Q E 0.5.@.Z.5XI.E X.d.P.kX8Xa.L.1XL.R ! i.8.s.qX X3.r.r.8.L.0.5.y.q.0.~ 7 A ~ F ^ S - ",
"} 8 X.>XZ.< c G Q > @ F.qXE c | ~ 3XqX7.9.T E 0.5.#.Z.9XI.Q X.d.s.lX3Xi.I.1Xq.R ! w.y.s.qX[.3.r.a.8.y.9.5.q.q.q.^ > 8 U F  .S - ",
"U 5 Q U.Z.< z F I > @ F.5XE c Q ^ 3XqX7.&.D Q 5.O.>.q.9XI.T  .d.s.jXR.r.I.1X8.R J i.a.P.qX[.e.a.a.6.q.q.9.q.q.R.X.% 8 U F ~ A ; ",
"Y 3 I d.0.7 c F D > ; F.3XT c Q @.{.qX7.&.D E 5.^ ,.q.9XI.L } d.U.kX_.8.a.1Xq.N J i.I.U.9X[.e.a.8.6.8.r.q.q.q.R.5.% 8 U A E u > ",
"Y j Q d.0.7 w S D ; 1 F.3XT c } ^ {.8X5.5.Q ^ 9.^ <.q.5XL.L } d.U.kX3X8.y.1Xq.B J i.U.'.9X[.4.r.8.6.8.r.q.7.8.I.X.% 8 L A ^ u 6 ",
"U v ~ d.0.6 5 S L @ - F.<XT c Q ^ R.5X5.&.Q Q 5.R 1.q.5XI.L } d.P.jX|.8.y.,X8.N J i.U.'.9X[.3.8.7.6.8.8.q.8.q.I. .% q Y p E e > ",
"Q e Q d.7.6 5 A b : ; Z.{.E A E ^ R.5X5. .Q E ^ ^ ,.q.,XI.n G d.P.kXR.,.y.1X6.B J i.U.U.9XI.p.y.q.5.a.6.7.q.7.a.^ 1 5 I y T e ; ",
"I r Q a.7.6 8 S b : # Z.{.T y E ^ U.<X,.^ D E ^ ^ ,.0.2XI.T } a.P.lXR.>.y.1X6.B J i.I.U.9XI.p.y.E R 8.6.q.q.7.d.~ - 5 I y J e ; ",
"} w Q d.0.6 8 A c : @ 0.U.T q E ^ U.>X5.^ D Q 5.^ ,.0.:X7.n Q d.d.jXR.:.q.,X5.B J i.I.U.9XI.e.q.n T 8.6.q.q.>.a.E - 2 I y J w ; ",
" .w Q d.0.6 5 y c : @ Z.U.T y E E P.{.5.^ b J 5.^ ,.F.1X7.v G i.a.jXE.o.7.:X>.x M i.I.P.8XK.e.8.n W 8.5.q.7.>.a.E - 2 I A T e > ",
"} 4 K d.7.6 3 y b : # Z.{.E A E E a.].5.^ b D ^ ^ W 7.:X7.v G s.a.eXI.o.7.:X>.x M i.d.s.3Xy.3.8.D ^ 6.>.8.9.>.a.Q - * F A E e ; ",
"Q 4 G a.;., 3 e e : @ 0.U.T q Q T a.].8. .b D 5.^ o.;.U.&.v H s.a.wXI.W 7.2X>.x M i.I.s.3Xy.3.8.D ^ 6.>.8.9.5.8.Q - 2 F A E e ; ",
"| r Q d.;.> 3 e w : @ 9.a.n 8 L J q.].8. .b D 5.^ >.0.U.&.n H d.s.wXL.Z 5.:X>.x M i.d.s.3Xy.3.6.D ^ 6.,.8.5.5.5.L - 2 F e T e ; ",
"} r Q a.&.> 8 e w : @ 9.y.v 3 Q n 8.U.5.^ c D 5. .>.Q O.D v H d.s.wXq.C 5.:XO.x M i.d.s.3Xy.3.7.n R 6.,.5.5.5.>.D - 5 F 8 T e > ",
" .v ~ d.@.7 3 7 w : - 9.d.D 5 L D y.U.5.Q c D >.^ >.T T A c b s.a.9Xr.n W :Xo.l v t.y.a.5XL.i.>.J ^ 8.>.7.@.5.>.D O 2 S e E e 6 ",
"~ z ~ d.@.< 3 7 4 $ - 5.d.J 8 L n q.I.>.Q c D >.^ >.E E A c b s.8.5X8.n W :Xo.l v w.y.i.1XF.w.5.J O.r.O.9.@.5.>.D O 2 S 8 T e > ",
"Q = Q a.&., 6 7 w : - ;.I.Q 3 b c q.P.^ D k n >.^ o.! W A v v s.8.5X6.n ^ :XW x v 8.y.d.,Xq.3.6.J O.s.^ 7.5.5.O.D O 2 F 8 T y > ",
"D = I a.&.1 2 7 4 - - &.y.D 2 w j q.P.^ D k n 5.^ o.^ @.H v v a.8.5X6.n O.:XW J n w.y.i.2X0.<.5.n O.s.^ 7.@.>.O.D o 2 F 8 T u > ",
"S * I y.^ ; 6 7 4 - - %.y.D 2 w 5 q.a.E b c n 5.^ W >.5.H v z r.8.5X6.n O.:Xo.R T w.8.i.2X7.>.>.n ^ r.W >.^ ^ O.D o 2 S 8 J y 6 ",
"H * I 8.^ ; 2 7 4 - - &.u.A 2 e 5 9.a.T c A v 5.O.Z 5.6.H v z 8.8.1X5.n ^ ].o.R T 3.8.8.>X0.o.O.J ! 8.R E ^ ^ >.H o 2 y e J e 6 ",
"S * I 7.^ - 2 6 2 + $ &.8.8 # 8 5 9.q.T c H v 5.^ Z >.6.H v c 8.8.2X5.n W f.:.R T 2.8.1.:X9.W W J ! 8.W V ^ ^ >.A   2 y y J w 6 ",
"D = U 7.^ ; 6 < 4 + - 7.y.c ; e 5 9.q.n c D v 5.^ C O.6.A v c 8.<.:X5.n E f.:.R N 2.8.1.'.5.Z T n R 8.W n ^ ^ W c o 2 y S T w 6 ",
"A 4 J ,.U - 4 6 , $ @ &.Z.5 # y 5 >.q.n c D v <.E R O.6.n k c 6.8.'.^ M E s.:.T R ,.1.8.I.8.@.^ L E 1. .v ^ E ^ e o 2 S e J e 6 ",
"b 4 D ,.U - 4 6 , O X ~ q.5 # 8 3 ^ 8.n z A c ,.E T O.6.n k c <.1.'.^ v T p.:.C N :.2.6.P.6.@.^ D E 2.Q z ~ E ^ 8 o 2 A e J e 6 ",
"c 2 D ,.U - 4 6 6 O X | q.8 # 8 3 ^ 5.n z c b ,.E J ^ 6.D k j 6.1.U.@.x E p.:.N n :.,.6.L.8.>.^ D E 1.K 5 ~ E W 8 o 6 y e J e > ",
"8 % D ,.U - 4 6 > O X Q 5.3 # 6 3 W 5.n c c b ,.T D ^ 6.T 8 j 6.<.U.^ z T e.W n n o.:.>.L.8.>.^ D E 1.D 4 Q T R 8 o 6 y 8 J e ; ",
"5 % D <.U - 6 < 1 O O I  .2 # > 3 W >.D n c b <.T v R 6.E 8 c 6.<.U.E j T e.Z n n o.o.O.L.8.>.! n E 1.H 2 S D T 4 o 2 y 8 J e ; ",
"4 % D <.U - 2 , , O X I  .5 # 1 3 ~ @.T D c b <.L c T 5.^ 8 c 6.<.U.E j T s.C n n W W ^ y.7.^ R n Q 1.A % w v T 4   > e 8 n w > ",
"> & D ,.U - 2 1 1 . X I  .2 @ ; 6 E @.E T c b >.D j T ,.^ 8 5 5.,.P.L j L s.m v v R Z ^ q.>.W R v T 1.A > 4 w E 4   % e 4 n 8 > ",
"% @ D ,.I - 2 1 - . O I ~ * @ > 2 T ^ E T c c >.D 5 N >.~ 5 5 >.,.s.V j D s.m b v T R ^ q.@.E ! v T 1.H > 4 5 E 8   % e 4 v 4 > "
};
